<?xml version="1.0" encoding="UTF-8" standalone="no"?><svg xmlns="http://www.w3.org/2000/svg" xmlns:xlink="http://www.w3.org/1999/xlink" clip-rule="evenodd" stroke-miterlimit="10" viewBox="0 0 1024 768"><desc>SVG generated by Keynote</desc><defs></defs><g transform="matrix(1.00, 0.00, -0.00, -1.00, 0.0, 768.0)"><path d="M 0.0 768.0 L 1024.0 768.0 L 1024.0 0.0 L 0.0 0.0 Z M 0.0 768.0 " fill="#D0E4F3"></path><text xml:space="preserve" font-family="Helvetica-Light,Helvetica" font-size="80.0" fill="#D35854" transform="matrix(1.00, 0.00, -0.00, -1.00, 134.1, 633.4)">W</text><text xml:space="preserve" font-family="Helvetica-Light,Helvetica" font-size="80.0" fill="#D35854" transform="matrix(1.00, 0.00, -0.00, -1.00, 205.2, 633.4)">h</text><text xml:space="preserve" font-family="Helvetica-Light,Helvetica" font-size="80.0" fill="#D35854" transform="matrix(1.00, 0.00, -0.00, -1.00, 249.7, 633.4)">a</text><text xml:space="preserve" font-family="Helvetica-Light,Helvetica" font-size="80.0" fill="#D35854" transform="matrix(1.00, 0.00, -0.00, -1.00, 294.2, 633.4)">t</text><text xml:space="preserve" font-family="Helvetica-Light,Helvetica" font-size="80.0" fill="#D35854" transform="matrix(1.00, 0.00, -0.00, -1.00, 316.4, 633.4)"> </text><text xml:space="preserve" font-family="Helvetica-Light,Helvetica" font-size="80.0" fill="#D35854" transform="matrix(1.00, 0.00, -0.00, -1.00, 338.7, 633.4)">e</text><text xml:space="preserve" font-family="Helvetica-Light,Helvetica" font-size="80.0" fill="#D35854" transform="matrix(1.00, 0.00, -0.00, -1.00, 383.2, 633.4)">l</text><text xml:space="preserve" font-family="Helvetica-Light,Helvetica" font-size="80.0" fill="#D35854" transform="matrix(1.00, 0.00, -0.00, -1.00, 400.9, 633.4)">s</text><text xml:space="preserve" font-family="Helvetica-Light,Helvetica" font-size="80.0" fill="#D35854" transform="matrix(1.00, 0.00, -0.00, -1.00, 440.9, 633.4)">e</text><text xml:space="preserve" font-family="Helvetica-Light,Helvetica" font-size="80.0" fill="#D35854" transform="matrix(1.00, 0.00, -0.00, -1.00, 485.4, 633.4)"> </text><text xml:space="preserve" font-family="Helvetica-Light,Helvetica" font-size="80.0" fill="#D35854" transform="matrix(1.00, 0.00, -0.00, -1.00, 507.6, 633.4)">i</text><text xml:space="preserve" font-family="Helvetica-Light,Helvetica" font-size="80.0" fill="#D35854" transform="matrix(1.00, 0.00, -0.00, -1.00, 525.4, 633.4)">s</text><text xml:space="preserve" font-family="Helvetica-Light,Helvetica" font-size="80.0" fill="#D35854" transform="matrix(1.00, 0.00, -0.00, -1.00, 565.4, 633.4)"> </text><text xml:space="preserve" font-family="Helvetica-Light,Helvetica" font-size="80.0" fill="#D35854" transform="matrix(1.00, 0.00, -0.00, -1.00, 587.6, 633.4)">p</text><text xml:space="preserve" font-family="Helvetica-Light,Helvetica" font-size="80.0" fill="#D35854" transform="matrix(1.00, 0.00, -0.00, -1.00, 636.5, 633.4)">o</text><text xml:space="preserve" font-family="Helvetica-Light,Helvetica" font-size="80.0" fill="#D35854" transform="matrix(1.00, 0.00, -0.00, -1.00, 681.0, 633.4)">s</text><text xml:space="preserve" font-family="Helvetica-Light,Helvetica" font-size="80.0" fill="#D35854" transform="matrix(1.00, 0.00, -0.00, -1.00, 721.0, 633.4)">s</text><text xml:space="preserve" font-family="Helvetica-Light,Helvetica" font-size="80.0" fill="#D35854" transform="matrix(1.00, 0.00, -0.00, -1.00, 761.0, 633.4)">i</text><text xml:space="preserve" font-family="Helvetica-Light,Helvetica" font-size="80.0" fill="#D35854" transform="matrix(1.00, 0.00, -0.00, -1.00, 778.8, 633.4)">b</text><text xml:space="preserve" font-family="Helvetica-Light,Helvetica" font-size="80.0" fill="#D35854" transform="matrix(1.00, 0.00, -0.00, -1.00, 827.6, 633.4)">l</text><text xml:space="preserve" font-family="Helvetica-Light,Helvetica" font-size="80.0" fill="#D35854" transform="matrix(1.00, 0.00, -0.00, -1.00, 845.4, 633.4)">e</text></g></svg>