<?xml version="1.0" encoding="UTF-8" standalone="no"?><svg xmlns="http://www.w3.org/2000/svg" xmlns:xlink="http://www.w3.org/1999/xlink" clip-rule="evenodd" stroke-miterlimit="10" viewBox="0 0 1024 768"><desc>SVG generated by Keynote</desc><defs></defs><g transform="matrix(1.00, 0.00, -0.00, -1.00, 0.0, 768.0)"><path d="M 0.0 768.0 L 1024.0 768.0 L 1024.0 0.0 L 0.0 0.0 Z M 0.0 768.0 " fill="#D0E4F3"></path><text xml:space="preserve" font-family="Helvetica-Light,Helvetica" font-size="80.0" fill="#D35854" transform="matrix(1.00, 0.00, -0.00, -1.00, 134.2, 633.4)">C</text><text xml:space="preserve" font-family="Helvetica-Light,Helvetica" font-size="80.0" fill="#D35854" transform="matrix(1.00, 0.00, -0.00, -1.00, 192.0, 633.4)">u</text><text xml:space="preserve" font-family="Helvetica-Light,Helvetica" font-size="80.0" fill="#D35854" transform="matrix(1.00, 0.00, -0.00, -1.00, 236.4, 633.4)">s</text><text xml:space="preserve" font-family="Helvetica-Light,Helvetica" font-size="80.0" fill="#D35854" transform="matrix(1.00, 0.00, -0.00, -1.00, 276.4, 633.4)">t</text><text xml:space="preserve" font-family="Helvetica-Light,Helvetica" font-size="80.0" fill="#D35854" transform="matrix(1.00, 0.00, -0.00, -1.00, 298.7, 633.4)">o</text><text xml:space="preserve" font-family="Helvetica-Light,Helvetica" font-size="80.0" fill="#D35854" transform="matrix(1.00, 0.00, -0.00, -1.00, 343.2, 633.4)">m</text><text xml:space="preserve" font-family="Helvetica-Light,Helvetica" font-size="80.0" fill="#D35854" transform="matrix(1.00, 0.00, -0.00, -1.00, 409.8, 633.4)">i</text><text xml:space="preserve" font-family="Helvetica-Light,Helvetica" font-size="80.0" fill="#D35854" transform="matrix(1.00, 0.00, -0.00, -1.00, 427.6, 633.4)">s</text><text xml:space="preserve" font-family="Helvetica-Light,Helvetica" font-size="80.0" fill="#D35854" transform="matrix(1.00, 0.00, -0.00, -1.00, 467.6, 633.4)">i</text><text xml:space="preserve" font-family="Helvetica-Light,Helvetica" font-size="80.0" fill="#D35854" transform="matrix(1.00, 0.00, -0.00, -1.00, 485.3, 633.4)">n</text><text xml:space="preserve" font-family="Helvetica-Light,Helvetica" font-size="80.0" fill="#D35854" transform="matrix(1.00, 0.00, -0.00, -1.00, 529.8, 633.4)">g</text><text xml:space="preserve" font-family="Helvetica-Light,Helvetica" font-size="80.0" fill="#D35854" transform="matrix(1.00, 0.00, -0.00, -1.00, 578.7, 633.4)"> </text><text xml:space="preserve" font-family="Helvetica-Light,Helvetica" font-size="80.0" fill="#D35854" transform="matrix(1.00, 0.00, -0.00, -1.00, 600.9, 633.4)">M</text><text xml:space="preserve" font-family="Helvetica-Light,Helvetica" font-size="80.0" fill="#D35854" transform="matrix(1.00, 0.00, -0.00, -1.00, 667.6, 633.4)">a</text><text xml:space="preserve" font-family="Helvetica-Light,Helvetica" font-size="80.0" fill="#D35854" transform="matrix(1.00, 0.00, -0.00, -1.00, 712.0, 633.4)">r</text><text xml:space="preserve" font-family="Helvetica-Light,Helvetica" font-size="80.0" fill="#D35854" transform="matrix(1.00, 0.00, -0.00, -1.00, 738.7, 633.4)">k</text><text xml:space="preserve" font-family="Helvetica-Light,Helvetica" font-size="80.0" fill="#D35854" transform="matrix(1.00, 0.00, -0.00, -1.00, 778.7, 633.4)">e</text><text xml:space="preserve" font-family="Helvetica-Light,Helvetica" font-size="80.0" fill="#D35854" transform="matrix(1.00, 0.00, -0.00, -1.00, 823.2, 633.4)">r</text><text xml:space="preserve" font-family="Helvetica-Light,Helvetica" font-size="80.0" fill="#D35854" transform="matrix(1.00, 0.00, -0.00, -1.00, 849.8, 633.4)">s</text></g></svg>