<?xml version="1.0" encoding="UTF-8" standalone="no"?><svg xmlns="http://www.w3.org/2000/svg" xmlns:xlink="http://www.w3.org/1999/xlink" clip-rule="evenodd" stroke-miterlimit="10" viewBox="0 0 1024 768"><desc>SVG generated by Keynote</desc><defs></defs><g transform="matrix(1.00, 0.00, -0.00, -1.00, 0.0, 768.0)"><path d="M 0.0 768.0 L 1024.0 768.0 L 1024.0 0.0 L 0.0 0.0 Z M 0.0 768.0 " fill="#D0E4F3"></path><text xml:space="preserve" font-family="Helvetica-Light,Helvetica" font-size="80.0" fill="#D35854" transform="matrix(1.00, 0.00, -0.00, -1.00, 338.6, 633.4)">A</text><text xml:space="preserve" font-family="Helvetica-Light,Helvetica" font-size="80.0" fill="#D35854" transform="matrix(1.00, 0.00, -0.00, -1.00, 392.0, 633.4)">b</text><text xml:space="preserve" font-family="Helvetica-Light,Helvetica" font-size="80.0" fill="#D35854" transform="matrix(1.00, 0.00, -0.00, -1.00, 440.8, 633.4)">o</text><text xml:space="preserve" font-family="Helvetica-Light,Helvetica" font-size="80.0" fill="#D35854" transform="matrix(1.00, 0.00, -0.00, -1.00, 485.3, 633.4)">u</text><text xml:space="preserve" font-family="Helvetica-Light,Helvetica" font-size="80.0" fill="#D35854" transform="matrix(1.00, 0.00, -0.00, -1.00, 529.8, 633.4)">t</text><text xml:space="preserve" font-family="Helvetica-Light,Helvetica" font-size="80.0" fill="#D35854" transform="matrix(1.00, 0.00, -0.00, -1.00, 552.0, 633.4)"> </text><text xml:space="preserve" font-family="Helvetica-Light,Helvetica" font-size="80.0" fill="#D35854" transform="matrix(1.00, 0.00, -0.00, -1.00, 574.3, 633.4)">m</text><text xml:space="preserve" font-family="Helvetica-Light,Helvetica" font-size="80.0" fill="#D35854" transform="matrix(1.00, 0.00, -0.00, -1.00, 640.9, 633.4)">e</text></g></svg>