<?xml version="1.0" encoding="UTF-8" standalone="no"?><svg xmlns="http://www.w3.org/2000/svg" xmlns:xlink="http://www.w3.org/1999/xlink" clip-rule="evenodd" stroke-miterlimit="10" viewBox="0 0 1024 768"><desc>SVG generated by Keynote</desc><defs></defs><g transform="matrix(1.00, 0.00, -0.00, -1.00, 0.0, 768.0)"><path d="M 0.0 768.0 L 1024.0 768.0 L 1024.0 0.0 L 0.0 0.0 Z M 0.0 768.0 " fill="#D0E4F3"></path><text xml:space="preserve" font-family="Helvetica-Light,Helvetica" font-size="80.0" fill="#D35854" transform="matrix(1.00, 0.00, -0.00, -1.00, 367.6, 633.4)">M</text><text xml:space="preserve" font-family="Helvetica-Light,Helvetica" font-size="80.0" fill="#D35854" transform="matrix(1.00, 0.00, -0.00, -1.00, 434.2, 633.4)">a</text><text xml:space="preserve" font-family="Helvetica-Light,Helvetica" font-size="80.0" fill="#D35854" transform="matrix(1.00, 0.00, -0.00, -1.00, 478.7, 633.4)">r</text><text xml:space="preserve" font-family="Helvetica-Light,Helvetica" font-size="80.0" fill="#D35854" transform="matrix(1.00, 0.00, -0.00, -1.00, 505.3, 633.4)">k</text><text xml:space="preserve" font-family="Helvetica-Light,Helvetica" font-size="80.0" fill="#D35854" transform="matrix(1.00, 0.00, -0.00, -1.00, 545.3, 633.4)">e</text><text xml:space="preserve" font-family="Helvetica-Light,Helvetica" font-size="80.0" fill="#D35854" transform="matrix(1.00, 0.00, -0.00, -1.00, 589.8, 633.4)">r</text><text xml:space="preserve" font-family="Helvetica-Light,Helvetica" font-size="80.0" fill="#D35854" transform="matrix(1.00, 0.00, -0.00, -1.00, 616.4, 633.4)">s</text><text xml:space="preserve" font-family="CourierNewPS-BoldMT,Courier New" font-weight="bold" font-size="38.0" fill="#000000" transform="matrix(1.00, 0.00, -0.00, -1.00, 79.0, 499.4)">v</text><text xml:space="preserve" font-family="CourierNewPS-BoldMT,Courier New" font-weight="bold" font-size="38.0" fill="#000000" transform="matrix(1.00, 0.00, -0.00, -1.00, 101.8, 499.4)">a</text><text xml:space="preserve" font-family="CourierNewPS-BoldMT,Courier New" font-weight="bold" font-size="38.0" fill="#000000" transform="matrix(1.00, 0.00, -0.00, -1.00, 124.6, 499.4)">r</text><text xml:space="preserve" font-family="CourierNewPSMT,Courier New" font-size="38.0" fill="#000000" transform="matrix(1.00, 0.00, -0.00, -1.00, 147.4, 499.4)"> </text><text xml:space="preserve" font-family="CourierNewPSMT,Courier New" font-size="38.0" fill="#000000" transform="matrix(1.00, 0.00, -0.00, -1.00, 170.2, 499.4)">b</text><text xml:space="preserve" font-family="CourierNewPSMT,Courier New" font-size="38.0" fill="#000000" transform="matrix(1.00, 0.00, -0.00, -1.00, 193.0, 499.4)">e</text><text xml:space="preserve" font-family="CourierNewPSMT,Courier New" font-size="38.0" fill="#000000" transform="matrix(1.00, 0.00, -0.00, -1.00, 215.8, 499.4)">t</text><text xml:space="preserve" font-family="CourierNewPSMT,Courier New" font-size="38.0" fill="#000000" transform="matrix(1.00, 0.00, -0.00, -1.00, 238.6, 499.4)">a</text><text xml:space="preserve" font-family="CourierNewPSMT,Courier New" font-size="38.0" fill="#000000" transform="matrix(1.00, 0.00, -0.00, -1.00, 261.4, 499.4)">h</text><text xml:space="preserve" font-family="CourierNewPSMT,Courier New" font-size="38.0" fill="#000000" transform="matrix(1.00, 0.00, -0.00, -1.00, 284.3, 499.4)">a</text><text xml:space="preserve" font-family="CourierNewPSMT,Courier New" font-size="38.0" fill="#000000" transform="matrix(1.00, 0.00, -0.00, -1.00, 307.1, 499.4)">u</text><text xml:space="preserve" font-family="CourierNewPSMT,Courier New" font-size="38.0" fill="#000000" transform="matrix(1.00, 0.00, -0.00, -1.00, 329.9, 499.4)">s</text><text xml:space="preserve" font-family="CourierNewPSMT,Courier New" font-size="38.0" fill="#000000" transform="matrix(1.00, 0.00, -0.00, -1.00, 352.7, 499.4)"> </text><text xml:space="preserve" font-family="CourierNewPSMT,Courier New" font-size="38.0" fill="#000000" transform="matrix(1.00, 0.00, -0.00, -1.00, 375.5, 499.4)">=</text><text xml:space="preserve" font-family="CourierNewPSMT,Courier New" font-size="38.0" fill="#000000" transform="matrix(1.00, 0.00, -0.00, -1.00, 398.3, 499.4)"> </text><text xml:space="preserve" font-family="CourierNewPSMT,Courier New" font-size="38.0" fill="#000000" transform="matrix(1.00, 0.00, -0.00, -1.00, 421.1, 499.4)"> </text><text xml:space="preserve" font-family="CourierNewPS-BoldMT,Courier New" font-weight="bold" font-size="38.0" fill="#000000" transform="matrix(1.00, 0.00, -0.00, -1.00, 97.0, 456.4)">n</text><text xml:space="preserve" font-family="CourierNewPS-BoldMT,Courier New" font-weight="bold" font-size="38.0" fill="#000000" transform="matrix(1.00, 0.00, -0.00, -1.00, 119.8, 456.4)">e</text><text xml:space="preserve" font-family="CourierNewPS-BoldMT,Courier New" font-weight="bold" font-size="38.0" fill="#000000" transform="matrix(1.00, 0.00, -0.00, -1.00, 142.6, 456.4)">w</text><text xml:space="preserve" font-family="CourierNewPSMT,Courier New" font-size="38.0" fill="#000000" transform="matrix(1.00, 0.00, -0.00, -1.00, 165.4, 456.4)"> </text><text xml:space="preserve" font-family="CourierNewPSMT,Courier New" font-size="38.0" fill="#000000" transform="matrix(1.00, 0.00, -0.00, -1.00, 188.2, 456.4)">g</text><text xml:space="preserve" font-family="CourierNewPSMT,Courier New" font-size="38.0" fill="#000000" transform="matrix(1.00, 0.00, -0.00, -1.00, 211.0, 456.4)">o</text><text xml:space="preserve" font-family="CourierNewPSMT,Courier New" font-size="38.0" fill="#000000" transform="matrix(1.00, 0.00, -0.00, -1.00, 233.8, 456.4)">o</text><text xml:space="preserve" font-family="CourierNewPSMT,Courier New" font-size="38.0" fill="#000000" transform="matrix(1.00, 0.00, -0.00, -1.00, 256.6, 456.4)">g</text><text xml:space="preserve" font-family="CourierNewPSMT,Courier New" font-size="38.0" fill="#000000" transform="matrix(1.00, 0.00, -0.00, -1.00, 279.4, 456.4)">l</text><text xml:space="preserve" font-family="CourierNewPSMT,Courier New" font-size="38.0" fill="#000000" transform="matrix(1.00, 0.00, -0.00, -1.00, 302.3, 456.4)">e</text><text xml:space="preserve" font-family="CourierNewPSMT,Courier New" font-size="38.0" fill="#000000" transform="matrix(1.00, 0.00, -0.00, -1.00, 325.1, 456.4)">.</text><text xml:space="preserve" font-family="CourierNewPSMT,Courier New" font-size="38.0" fill="#000000" transform="matrix(1.00, 0.00, -0.00, -1.00, 347.9, 456.4)">m</text><text xml:space="preserve" font-family="CourierNewPSMT,Courier New" font-size="38.0" fill="#000000" transform="matrix(1.00, 0.00, -0.00, -1.00, 370.7, 456.4)">a</text><text xml:space="preserve" font-family="CourierNewPSMT,Courier New" font-size="38.0" fill="#000000" transform="matrix(1.00, 0.00, -0.00, -1.00, 393.5, 456.4)">p</text><text xml:space="preserve" font-family="CourierNewPSMT,Courier New" font-size="38.0" fill="#000000" transform="matrix(1.00, 0.00, -0.00, -1.00, 416.3, 456.4)">s</text><text xml:space="preserve" font-family="CourierNewPSMT,Courier New" font-size="38.0" fill="#000000" transform="matrix(1.00, 0.00, -0.00, -1.00, 439.1, 456.4)">.</text><text xml:space="preserve" font-family="CourierNewPSMT,Courier New" font-size="38.0" fill="#021993" transform="matrix(1.00, 0.00, -0.00, -1.00, 461.9, 456.4)">L</text><text xml:space="preserve" font-family="CourierNewPSMT,Courier New" font-size="38.0" fill="#021993" transform="matrix(1.00, 0.00, -0.00, -1.00, 484.7, 456.4)">a</text><text xml:space="preserve" font-family="CourierNewPSMT,Courier New" font-size="38.0" fill="#021993" transform="matrix(1.00, 0.00, -0.00, -1.00, 507.5, 456.4)">t</text><text xml:space="preserve" font-family="CourierNewPSMT,Courier New" font-size="38.0" fill="#021993" transform="matrix(1.00, 0.00, -0.00, -1.00, 530.3, 456.4)">L</text><text xml:space="preserve" font-family="CourierNewPSMT,Courier New" font-size="38.0" fill="#021993" transform="matrix(1.00, 0.00, -0.00, -1.00, 553.1, 456.4)">n</text><text xml:space="preserve" font-family="CourierNewPSMT,Courier New" font-size="38.0" fill="#021993" transform="matrix(1.00, 0.00, -0.00, -1.00, 575.9, 456.4)">g</text><text xml:space="preserve" font-family="CourierNewPSMT,Courier New" font-size="38.0" fill="#000000" transform="matrix(1.00, 0.00, -0.00, -1.00, 598.7, 456.4)">(</text><text xml:space="preserve" font-family="CourierNewPSMT,Courier New" font-size="38.0" fill="#000000" transform="matrix(1.00, 0.00, -0.00, -1.00, 621.5, 456.4)"> </text><text xml:space="preserve" font-family="CourierNewPSMT,Courier New" font-size="38.0" fill="#BE8F00" transform="matrix(1.00, 0.00, -0.00, -1.00, 115.0, 413.4)">4</text><text xml:space="preserve" font-family="CourierNewPSMT,Courier New" font-size="38.0" fill="#BE8F00" transform="matrix(1.00, 0.00, -0.00, -1.00, 137.8, 413.4)">2</text><text xml:space="preserve" font-family="CourierNewPSMT,Courier New" font-size="38.0" fill="#BE8F00" transform="matrix(1.00, 0.00, -0.00, -1.00, 160.6, 413.4)">.</text><text xml:space="preserve" font-family="CourierNewPSMT,Courier New" font-size="38.0" fill="#BE8F00" transform="matrix(1.00, 0.00, -0.00, -1.00, 183.4, 413.4)">6</text><text xml:space="preserve" font-family="CourierNewPSMT,Courier New" font-size="38.0" fill="#BE8F00" transform="matrix(1.00, 0.00, -0.00, -1.00, 206.2, 413.4)">8</text><text xml:space="preserve" font-family="CourierNewPSMT,Courier New" font-size="38.0" fill="#BE8F00" transform="matrix(1.00, 0.00, -0.00, -1.00, 229.0, 413.4)">0</text><text xml:space="preserve" font-family="CourierNewPSMT,Courier New" font-size="38.0" fill="#BE8F00" transform="matrix(1.00, 0.00, -0.00, -1.00, 251.8, 413.4)">2</text><text xml:space="preserve" font-family="CourierNewPSMT,Courier New" font-size="38.0" fill="#BE8F00" transform="matrix(1.00, 0.00, -0.00, -1.00, 274.7, 413.4)">8</text><text xml:space="preserve" font-family="CourierNewPSMT,Courier New" font-size="38.0" fill="#BE8F00" transform="matrix(1.00, 0.00, -0.00, -1.00, 297.5, 413.4)">2</text><text xml:space="preserve" font-family="CourierNewPSMT,Courier New" font-size="38.0" fill="#000000" transform="matrix(1.00, 0.00, -0.00, -1.00, 320.2, 413.4)">,</text><text xml:space="preserve" font-family="CourierNewPSMT,Courier New" font-size="38.0" fill="#000000" transform="matrix(1.00, 0.00, -0.00, -1.00, 343.0, 413.4)"> </text><text xml:space="preserve" font-family="CourierNewPSMT,Courier New" font-size="38.0" fill="#000000" transform="matrix(1.00, 0.00, -0.00, -1.00, 365.8, 413.4)"> </text><text xml:space="preserve" font-family="CourierNewPSMT,Courier New" font-size="38.0" fill="#BE8F00" transform="matrix(1.00, 0.00, -0.00, -1.00, 115.0, 370.4)">2</text><text xml:space="preserve" font-family="CourierNewPSMT,Courier New" font-size="38.0" fill="#BE8F00" transform="matrix(1.00, 0.00, -0.00, -1.00, 137.8, 370.4)">3</text><text xml:space="preserve" font-family="CourierNewPSMT,Courier New" font-size="38.0" fill="#BE8F00" transform="matrix(1.00, 0.00, -0.00, -1.00, 160.6, 370.4)">.</text><text xml:space="preserve" font-family="CourierNewPSMT,Courier New" font-size="38.0" fill="#BE8F00" transform="matrix(1.00, 0.00, -0.00, -1.00, 183.4, 370.4)">3</text><text xml:space="preserve" font-family="CourierNewPSMT,Courier New" font-size="38.0" fill="#BE8F00" transform="matrix(1.00, 0.00, -0.00, -1.00, 206.2, 370.4)">2</text><text xml:space="preserve" font-family="CourierNewPSMT,Courier New" font-size="38.0" fill="#BE8F00" transform="matrix(1.00, 0.00, -0.00, -1.00, 229.0, 370.4)">5</text><text xml:space="preserve" font-family="CourierNewPSMT,Courier New" font-size="38.0" fill="#BE8F00" transform="matrix(1.00, 0.00, -0.00, -1.00, 251.8, 370.4)">2</text><text xml:space="preserve" font-family="CourierNewPSMT,Courier New" font-size="38.0" fill="#BE8F00" transform="matrix(1.00, 0.00, -0.00, -1.00, 274.7, 370.4)">6</text><text xml:space="preserve" font-family="CourierNewPSMT,Courier New" font-size="38.0" fill="#BE8F00" transform="matrix(1.00, 0.00, -0.00, -1.00, 297.5, 370.4)">8</text><text xml:space="preserve" font-family="CourierNewPSMT,Courier New" font-size="38.0" fill="#BE8F00" transform="matrix(1.00, 0.00, -0.00, -1.00, 320.3, 370.4)">9</text><text xml:space="preserve" font-family="CourierNewPSMT,Courier New" font-size="38.0" fill="#BE8F00" transform="matrix(1.00, 0.00, -0.00, -1.00, 343.0, 370.4)"> </text><text xml:space="preserve" font-family="CourierNewPSMT,Courier New" font-size="38.0" fill="#000000" transform="matrix(1.00, 0.00, -0.00, -1.00, 79.0, 327.4)">)</text><text xml:space="preserve" font-family="CourierNewPSMT,Courier New" font-size="38.0" fill="#000000" transform="matrix(1.00, 0.00, -0.00, -1.00, 101.8, 327.4)">;</text><text xml:space="preserve" font-family="CourierNewPSMT,Courier New" font-size="38.0" fill="#000000" transform="matrix(1.00, 0.00, -0.00, -1.00, 124.6, 327.4)"> </text><text xml:space="preserve" font-family="CourierNewPS-BoldMT,Courier New" font-weight="bold" font-size="38.0" fill="#000000" transform="matrix(1.00, 0.00, -0.00, -1.00, 79.0, 241.4)">v</text><text xml:space="preserve" font-family="CourierNewPS-BoldMT,Courier New" font-weight="bold" font-size="38.0" fill="#000000" transform="matrix(1.00, 0.00, -0.00, -1.00, 101.8, 241.4)">a</text><text xml:space="preserve" font-family="CourierNewPS-BoldMT,Courier New" font-weight="bold" font-size="38.0" fill="#000000" transform="matrix(1.00, 0.00, -0.00, -1.00, 124.6, 241.4)">r</text><text xml:space="preserve" font-family="CourierNewPSMT,Courier New" font-size="38.0" fill="#000000" transform="matrix(1.00, 0.00, -0.00, -1.00, 147.4, 241.4)"> </text><text xml:space="preserve" font-family="CourierNewPSMT,Courier New" font-size="38.0" fill="#000000" transform="matrix(1.00, 0.00, -0.00, -1.00, 170.2, 241.4)">m</text><text xml:space="preserve" font-family="CourierNewPSMT,Courier New" font-size="38.0" fill="#000000" transform="matrix(1.00, 0.00, -0.00, -1.00, 193.0, 241.4)">a</text><text xml:space="preserve" font-family="CourierNewPSMT,Courier New" font-size="38.0" fill="#000000" transform="matrix(1.00, 0.00, -0.00, -1.00, 215.8, 241.4)">r</text><text xml:space="preserve" font-family="CourierNewPSMT,Courier New" font-size="38.0" fill="#000000" transform="matrix(1.00, 0.00, -0.00, -1.00, 238.6, 241.4)">k</text><text xml:space="preserve" font-family="CourierNewPSMT,Courier New" font-size="38.0" fill="#000000" transform="matrix(1.00, 0.00, -0.00, -1.00, 261.4, 241.4)">e</text><text xml:space="preserve" font-family="CourierNewPSMT,Courier New" font-size="38.0" fill="#000000" transform="matrix(1.00, 0.00, -0.00, -1.00, 284.3, 241.4)">r</text><text xml:space="preserve" font-family="CourierNewPSMT,Courier New" font-size="38.0" fill="#000000" transform="matrix(1.00, 0.00, -0.00, -1.00, 307.1, 241.4)"> </text><text xml:space="preserve" font-family="CourierNewPSMT,Courier New" font-size="38.0" fill="#000000" transform="matrix(1.00, 0.00, -0.00, -1.00, 329.9, 241.4)">=</text><text xml:space="preserve" font-family="CourierNewPSMT,Courier New" font-size="38.0" fill="#000000" transform="matrix(1.00, 0.00, -0.00, -1.00, 352.7, 241.4)"> </text><text xml:space="preserve" font-family="CourierNewPS-BoldMT,Courier New" font-weight="bold" font-size="38.0" fill="#000000" transform="matrix(1.00, 0.00, -0.00, -1.00, 375.4, 241.4)">n</text><text xml:space="preserve" font-family="CourierNewPS-BoldMT,Courier New" font-weight="bold" font-size="38.0" fill="#000000" transform="matrix(1.00, 0.00, -0.00, -1.00, 398.3, 241.4)">e</text><text xml:space="preserve" font-family="CourierNewPS-BoldMT,Courier New" font-weight="bold" font-size="38.0" fill="#000000" transform="matrix(1.00, 0.00, -0.00, -1.00, 421.1, 241.4)">w</text><text xml:space="preserve" font-family="CourierNewPSMT,Courier New" font-size="38.0" fill="#000000" transform="matrix(1.00, 0.00, -0.00, -1.00, 443.9, 241.4)"> </text><text xml:space="preserve" font-family="CourierNewPSMT,Courier New" font-size="38.0" fill="#000000" transform="matrix(1.00, 0.00, -0.00, -1.00, 466.7, 241.4)">g</text><text xml:space="preserve" font-family="CourierNewPSMT,Courier New" font-size="38.0" fill="#000000" transform="matrix(1.00, 0.00, -0.00, -1.00, 489.5, 241.4)">o</text><text xml:space="preserve" font-family="CourierNewPSMT,Courier New" font-size="38.0" fill="#000000" transform="matrix(1.00, 0.00, -0.00, -1.00, 512.3, 241.4)">o</text><text xml:space="preserve" font-family="CourierNewPSMT,Courier New" font-size="38.0" fill="#000000" transform="matrix(1.00, 0.00, -0.00, -1.00, 535.1, 241.4)">g</text><text xml:space="preserve" font-family="CourierNewPSMT,Courier New" font-size="38.0" fill="#000000" transform="matrix(1.00, 0.00, -0.00, -1.00, 557.9, 241.4)">l</text><text xml:space="preserve" font-family="CourierNewPSMT,Courier New" font-size="38.0" fill="#000000" transform="matrix(1.00, 0.00, -0.00, -1.00, 580.7, 241.4)">e</text><text xml:space="preserve" font-family="CourierNewPSMT,Courier New" font-size="38.0" fill="#000000" transform="matrix(1.00, 0.00, -0.00, -1.00, 603.5, 241.4)">.</text><text xml:space="preserve" font-family="CourierNewPSMT,Courier New" font-size="38.0" fill="#000000" transform="matrix(1.00, 0.00, -0.00, -1.00, 626.3, 241.4)">m</text><text xml:space="preserve" font-family="CourierNewPSMT,Courier New" font-size="38.0" fill="#000000" transform="matrix(1.00, 0.00, -0.00, -1.00, 649.1, 241.4)">a</text><text xml:space="preserve" font-family="CourierNewPSMT,Courier New" font-size="38.0" fill="#000000" transform="matrix(1.00, 0.00, -0.00, -1.00, 671.9, 241.4)">p</text><text xml:space="preserve" font-family="CourierNewPSMT,Courier New" font-size="38.0" fill="#000000" transform="matrix(1.00, 0.00, -0.00, -1.00, 694.7, 241.4)">s</text><text xml:space="preserve" font-family="CourierNewPSMT,Courier New" font-size="38.0" fill="#000000" transform="matrix(1.00, 0.00, -0.00, -1.00, 717.5, 241.4)">.</text><text xml:space="preserve" font-family="CourierNewPSMT,Courier New" font-size="38.0" fill="#021993" transform="matrix(1.00, 0.00, -0.00, -1.00, 740.3, 241.4)">M</text><text xml:space="preserve" font-family="CourierNewPSMT,Courier New" font-size="38.0" fill="#021993" transform="matrix(1.00, 0.00, -0.00, -1.00, 763.1, 241.4)">a</text><text xml:space="preserve" font-family="CourierNewPSMT,Courier New" font-size="38.0" fill="#021993" transform="matrix(1.00, 0.00, -0.00, -1.00, 785.9, 241.4)">r</text><text xml:space="preserve" font-family="CourierNewPSMT,Courier New" font-size="38.0" fill="#021993" transform="matrix(1.00, 0.00, -0.00, -1.00, 808.7, 241.4)">k</text><text xml:space="preserve" font-family="CourierNewPSMT,Courier New" font-size="38.0" fill="#021993" transform="matrix(1.00, 0.00, -0.00, -1.00, 831.5, 241.4)">e</text><text xml:space="preserve" font-family="CourierNewPSMT,Courier New" font-size="38.0" fill="#021993" transform="matrix(1.00, 0.00, -0.00, -1.00, 854.3, 241.4)">r</text><text xml:space="preserve" font-family="CourierNewPSMT,Courier New" font-size="38.0" fill="#000000" transform="matrix(1.00, 0.00, -0.00, -1.00, 877.1, 241.4)">(</text><text xml:space="preserve" font-family="CourierNewPSMT,Courier New" font-size="38.0" fill="#000000" transform="matrix(1.00, 0.00, -0.00, -1.00, 899.9, 241.4)">{</text><text xml:space="preserve" font-family="CourierNewPSMT,Courier New" font-size="38.0" fill="#000000" transform="matrix(1.00, 0.00, -0.00, -1.00, 922.7, 241.4)"> </text><text xml:space="preserve" font-family="CourierNewPSMT,Courier New" font-size="38.0" fill="#000000" transform="matrix(1.00, 0.00, -0.00, -1.00, 79.0, 198.4)"> </text><text xml:space="preserve" font-family="CourierNewPSMT,Courier New" font-size="38.0" fill="#000000" transform="matrix(1.00, 0.00, -0.00, -1.00, 101.8, 198.4)"> </text><text xml:space="preserve" font-family="CourierNewPSMT,Courier New" font-size="38.0" fill="#000000" transform="matrix(1.00, 0.00, -0.00, -1.00, 124.6, 198.4)"> </text><text xml:space="preserve" font-family="CourierNewPSMT,Courier New" font-size="38.0" fill="#000000" transform="matrix(1.00, 0.00, -0.00, -1.00, 147.4, 198.4)"> </text><text xml:space="preserve" font-family="CourierNewPSMT,Courier New" font-size="38.0" fill="#000000" transform="matrix(1.00, 0.00, -0.00, -1.00, 170.2, 198.4)">p</text><text xml:space="preserve" font-family="CourierNewPSMT,Courier New" font-size="38.0" fill="#000000" transform="matrix(1.00, 0.00, -0.00, -1.00, 193.0, 198.4)">o</text><text xml:space="preserve" font-family="CourierNewPSMT,Courier New" font-size="38.0" fill="#000000" transform="matrix(1.00, 0.00, -0.00, -1.00, 215.8, 198.4)">s</text><text xml:space="preserve" font-family="CourierNewPSMT,Courier New" font-size="38.0" fill="#000000" transform="matrix(1.00, 0.00, -0.00, -1.00, 238.7, 198.4)">i</text><text xml:space="preserve" font-family="CourierNewPSMT,Courier New" font-size="38.0" fill="#000000" transform="matrix(1.00, 0.00, -0.00, -1.00, 261.5, 198.4)">t</text><text xml:space="preserve" font-family="CourierNewPSMT,Courier New" font-size="38.0" fill="#000000" transform="matrix(1.00, 0.00, -0.00, -1.00, 284.3, 198.4)">i</text><text xml:space="preserve" font-family="CourierNewPSMT,Courier New" font-size="38.0" fill="#000000" transform="matrix(1.00, 0.00, -0.00, -1.00, 307.1, 198.4)">o</text><text xml:space="preserve" font-family="CourierNewPSMT,Courier New" font-size="38.0" fill="#000000" transform="matrix(1.00, 0.00, -0.00, -1.00, 329.9, 198.4)">n</text><text xml:space="preserve" font-family="CourierNewPSMT,Courier New" font-size="38.0" fill="#000000" transform="matrix(1.00, 0.00, -0.00, -1.00, 352.7, 198.4)">:</text><text xml:space="preserve" font-family="CourierNewPSMT,Courier New" font-size="38.0" fill="#000000" transform="matrix(1.00, 0.00, -0.00, -1.00, 375.5, 198.4)"> </text><text xml:space="preserve" font-family="CourierNewPSMT,Courier New" font-size="38.0" fill="#000000" transform="matrix(1.00, 0.00, -0.00, -1.00, 398.3, 198.4)">b</text><text xml:space="preserve" font-family="CourierNewPSMT,Courier New" font-size="38.0" fill="#000000" transform="matrix(1.00, 0.00, -0.00, -1.00, 421.1, 198.4)">e</text><text xml:space="preserve" font-family="CourierNewPSMT,Courier New" font-size="38.0" fill="#000000" transform="matrix(1.00, 0.00, -0.00, -1.00, 443.9, 198.4)">t</text><text xml:space="preserve" font-family="CourierNewPSMT,Courier New" font-size="38.0" fill="#000000" transform="matrix(1.00, 0.00, -0.00, -1.00, 466.7, 198.4)">a</text><text xml:space="preserve" font-family="CourierNewPSMT,Courier New" font-size="38.0" fill="#000000" transform="matrix(1.00, 0.00, -0.00, -1.00, 489.5, 198.4)">h</text><text xml:space="preserve" font-family="CourierNewPSMT,Courier New" font-size="38.0" fill="#000000" transform="matrix(1.00, 0.00, -0.00, -1.00, 512.3, 198.4)">a</text><text xml:space="preserve" font-family="CourierNewPSMT,Courier New" font-size="38.0" fill="#000000" transform="matrix(1.00, 0.00, -0.00, -1.00, 535.2, 198.4)">u</text><text xml:space="preserve" font-family="CourierNewPSMT,Courier New" font-size="38.0" fill="#000000" transform="matrix(1.00, 0.00, -0.00, -1.00, 558.0, 198.4)">s</text><text xml:space="preserve" font-family="CourierNewPSMT,Courier New" font-size="38.0" fill="#000000" transform="matrix(1.00, 0.00, -0.00, -1.00, 580.8, 198.4)">,</text><text xml:space="preserve" font-family="CourierNewPSMT,Courier New" font-size="38.0" fill="#000000" transform="matrix(1.00, 0.00, -0.00, -1.00, 603.6, 198.4)"> </text><text xml:space="preserve" font-family="CourierNewPSMT,Courier New" font-size="38.0" fill="#000000" transform="matrix(1.00, 0.00, -0.00, -1.00, 79.0, 155.4)"> </text><text xml:space="preserve" font-family="CourierNewPSMT,Courier New" font-size="38.0" fill="#000000" transform="matrix(1.00, 0.00, -0.00, -1.00, 101.8, 155.4)"> </text><text xml:space="preserve" font-family="CourierNewPSMT,Courier New" font-size="38.0" fill="#000000" transform="matrix(1.00, 0.00, -0.00, -1.00, 124.6, 155.4)"> </text><text xml:space="preserve" font-family="CourierNewPSMT,Courier New" font-size="38.0" fill="#000000" transform="matrix(1.00, 0.00, -0.00, -1.00, 147.4, 155.4)"> </text><text xml:space="preserve" font-family="CourierNewPSMT,Courier New" font-size="38.0" fill="#000000" transform="matrix(1.00, 0.00, -0.00, -1.00, 170.2, 155.4)">m</text><text xml:space="preserve" font-family="CourierNewPSMT,Courier New" font-size="38.0" fill="#000000" transform="matrix(1.00, 0.00, -0.00, -1.00, 193.0, 155.4)">a</text><text xml:space="preserve" font-family="CourierNewPSMT,Courier New" font-size="38.0" fill="#000000" transform="matrix(1.00, 0.00, -0.00, -1.00, 215.8, 155.4)">p</text><text xml:space="preserve" font-family="CourierNewPSMT,Courier New" font-size="38.0" fill="#000000" transform="matrix(1.00, 0.00, -0.00, -1.00, 238.7, 155.4)">:</text><text xml:space="preserve" font-family="CourierNewPSMT,Courier New" font-size="38.0" fill="#000000" transform="matrix(1.00, 0.00, -0.00, -1.00, 261.5, 155.4)"> </text><text xml:space="preserve" font-family="CourierNewPSMT,Courier New" font-size="38.0" fill="#000000" transform="matrix(1.00, 0.00, -0.00, -1.00, 284.3, 155.4)">m</text><text xml:space="preserve" font-family="CourierNewPSMT,Courier New" font-size="38.0" fill="#000000" transform="matrix(1.00, 0.00, -0.00, -1.00, 307.1, 155.4)">a</text><text xml:space="preserve" font-family="CourierNewPSMT,Courier New" font-size="38.0" fill="#000000" transform="matrix(1.00, 0.00, -0.00, -1.00, 329.9, 155.4)">p</text><text xml:space="preserve" font-family="CourierNewPSMT,Courier New" font-size="38.0" fill="#000000" transform="matrix(1.00, 0.00, -0.00, -1.00, 352.7, 155.4)"> </text><text xml:space="preserve" font-family="CourierNewPSMT,Courier New" font-size="38.0" fill="#000000" transform="matrix(1.00, 0.00, -0.00, -1.00, 79.0, 112.4)">}</text><text xml:space="preserve" font-family="CourierNewPSMT,Courier New" font-size="38.0" fill="#000000" transform="matrix(1.00, 0.00, -0.00, -1.00, 101.8, 112.4)">)</text><text xml:space="preserve" font-family="CourierNewPSMT,Courier New" font-size="38.0" fill="#000000" transform="matrix(1.00, 0.00, -0.00, -1.00, 124.6, 112.4)">;</text></g></svg>