<?xml version="1.0" encoding="UTF-8" standalone="no"?><svg xmlns="http://www.w3.org/2000/svg" xmlns:xlink="http://www.w3.org/1999/xlink" clip-rule="evenodd" stroke-miterlimit="10" viewBox="0 0 210 39"><desc>SVG generated by Keynote</desc><defs></defs><g transform="matrix(1.00, 0.00, -0.00, -1.00, 0.0, 39.0)"><text xml:space="preserve" font-family="Helvetica-Light,Helvetica" font-size="28.5" fill="#000000" transform="matrix(1.00, 0.00, -0.00, -1.00, 0.0, 13.1)">•</text><text xml:space="preserve" font-family="Helvetica-Light,Helvetica" font-size="38.0" fill="#000000" transform="matrix(1.00, 0.00, -0.00, -1.00, 35.0, 9.7)">H</text><text xml:space="preserve" font-family="Helvetica-Light,Helvetica" font-size="38.0" fill="#000000" transform="matrix(1.00, 0.00, -0.00, -1.00, 62.4, 9.7)">e</text><text xml:space="preserve" font-family="Helvetica-Light,Helvetica" font-size="38.0" fill="#000000" transform="matrix(1.00, 0.00, -0.00, -1.00, 83.6, 9.7)">a</text><text xml:space="preserve" font-family="Helvetica-Light,Helvetica" font-size="38.0" fill="#000000" transform="matrix(1.00, 0.00, -0.00, -1.00, 104.7, 9.7)">t</text><text xml:space="preserve" font-family="Helvetica-Light,Helvetica" font-size="38.0" fill="#000000" transform="matrix(1.00, 0.00, -0.00, -1.00, 115.3, 9.7)">m</text><text xml:space="preserve" font-family="Helvetica-Light,Helvetica" font-size="38.0" fill="#000000" transform="matrix(1.00, 0.00, -0.00, -1.00, 146.9, 9.7)">a</text><text xml:space="preserve" font-family="Helvetica-Light,Helvetica" font-size="38.0" fill="#000000" transform="matrix(1.00, 0.00, -0.00, -1.00, 168.0, 9.7)">p</text><text xml:space="preserve" font-family="Helvetica-Light,Helvetica" font-size="38.0" fill="#000000" transform="matrix(1.00, 0.00, -0.00, -1.00, 191.3, 9.7)">s</text></g></svg>