<?xml version="1.0" encoding="UTF-8" standalone="no"?><svg xmlns="http://www.w3.org/2000/svg" xmlns:xlink="http://www.w3.org/1999/xlink" clip-rule="evenodd" stroke-miterlimit="10" viewBox="0 0 862 73"><desc>SVG generated by Keynote</desc><defs></defs><g transform="matrix(1.00, 0.00, -0.00, -1.00, 0.0, 73.0)"><text xml:space="preserve" font-family="Helvetica-Light,Helvetica" font-size="75.2" fill="#D35854" transform="matrix(1.00, 0.00, -0.00, -1.00, 0.5, 17.3)">W</text><text xml:space="preserve" font-family="Helvetica-Light,Helvetica" font-size="75.2" fill="#D35854" transform="matrix(1.00, 0.00, -0.00, -1.00, 67.4, 17.3)">h</text><text xml:space="preserve" font-family="Helvetica-Light,Helvetica" font-size="75.2" fill="#D35854" transform="matrix(1.00, 0.00, -0.00, -1.00, 109.2, 17.3)">a</text><text xml:space="preserve" font-family="Helvetica-Light,Helvetica" font-size="75.2" fill="#D35854" transform="matrix(1.00, 0.00, -0.00, -1.00, 151.0, 17.3)">t</text><text xml:space="preserve" font-family="Helvetica-Light,Helvetica" font-size="75.2" fill="#D35854" transform="matrix(1.00, 0.00, -0.00, -1.00, 171.9, 17.3)"> </text><text xml:space="preserve" font-family="Helvetica-Light,Helvetica" font-size="75.2" fill="#D35854" transform="matrix(1.00, 0.00, -0.00, -1.00, 192.8, 17.3)">y</text><text xml:space="preserve" font-family="Helvetica-Light,Helvetica" font-size="75.2" fill="#D35854" transform="matrix(1.00, 0.00, -0.00, -1.00, 230.4, 17.3)">o</text><text xml:space="preserve" font-family="Helvetica-Light,Helvetica" font-size="75.2" fill="#D35854" transform="matrix(1.00, 0.00, -0.00, -1.00, 272.2, 17.3)">u</text><text xml:space="preserve" font-family="Helvetica-Light,Helvetica" font-size="75.2" fill="#D35854" transform="matrix(1.00, 0.00, -0.00, -1.00, 314.0, 17.3)">’</text><text xml:space="preserve" font-family="Helvetica-Light,Helvetica" font-size="75.2" fill="#D35854" transform="matrix(1.00, 0.00, -0.00, -1.00, 330.7, 17.3)">l</text><text xml:space="preserve" font-family="Helvetica-Light,Helvetica" font-size="75.2" fill="#D35854" transform="matrix(1.00, 0.00, -0.00, -1.00, 347.4, 17.3)">l</text><text xml:space="preserve" font-family="Helvetica-Light,Helvetica" font-size="75.2" fill="#D35854" transform="matrix(1.00, 0.00, -0.00, -1.00, 364.1, 17.3)"> </text><text xml:space="preserve" font-family="Helvetica-Light,Helvetica" font-size="75.2" fill="#D35854" transform="matrix(1.00, 0.00, -0.00, -1.00, 385.0, 17.3)">s</text><text xml:space="preserve" font-family="Helvetica-Light,Helvetica" font-size="75.2" fill="#D35854" transform="matrix(1.00, 0.00, -0.00, -1.00, 422.6, 17.3)">e</text><text xml:space="preserve" font-family="Helvetica-Light,Helvetica" font-size="75.2" fill="#D35854" transform="matrix(1.00, 0.00, -0.00, -1.00, 464.4, 17.3)">e</text><text xml:space="preserve" font-family="Helvetica-Light,Helvetica" font-size="75.2" fill="#D35854" transform="matrix(1.00, 0.00, -0.00, -1.00, 506.2, 17.3)"> </text><text xml:space="preserve" font-family="Helvetica-Light,Helvetica" font-size="75.2" fill="#D35854" transform="matrix(1.00, 0.00, -0.00, -1.00, 527.1, 17.3)">i</text><text xml:space="preserve" font-family="Helvetica-Light,Helvetica" font-size="75.2" fill="#D35854" transform="matrix(1.00, 0.00, -0.00, -1.00, 543.8, 17.3)">n</text><text xml:space="preserve" font-family="Helvetica-Light,Helvetica" font-size="75.2" fill="#D35854" transform="matrix(1.00, 0.00, -0.00, -1.00, 585.6, 17.3)"> </text><text xml:space="preserve" font-family="Helvetica-Light,Helvetica" font-size="75.2" fill="#D35854" transform="matrix(1.00, 0.00, -0.00, -1.00, 606.6, 17.3)">t</text><text xml:space="preserve" font-family="Helvetica-Light,Helvetica" font-size="75.2" fill="#D35854" transform="matrix(1.00, 0.00, -0.00, -1.00, 627.5, 17.3)">h</text><text xml:space="preserve" font-family="Helvetica-Light,Helvetica" font-size="75.2" fill="#D35854" transform="matrix(1.00, 0.00, -0.00, -1.00, 669.3, 17.3)">i</text><text xml:space="preserve" font-family="Helvetica-Light,Helvetica" font-size="75.2" fill="#D35854" transform="matrix(1.00, 0.00, -0.00, -1.00, 686.0, 17.3)">s</text><text xml:space="preserve" font-family="Helvetica-Light,Helvetica" font-size="75.2" fill="#D35854" transform="matrix(1.00, 0.00, -0.00, -1.00, 723.6, 17.3)"> </text><text xml:space="preserve" font-family="Helvetica-Light,Helvetica" font-size="75.2" fill="#D35854" transform="matrix(1.00, 0.00, -0.00, -1.00, 744.5, 17.3)">t</text><text xml:space="preserve" font-family="Helvetica-Light,Helvetica" font-size="75.2" fill="#D35854" transform="matrix(1.00, 0.00, -0.00, -1.00, 765.4, 17.3)">a</text><text xml:space="preserve" font-family="Helvetica-Light,Helvetica" font-size="75.2" fill="#D35854" transform="matrix(1.00, 0.00, -0.00, -1.00, 807.2, 17.3)">l</text><text xml:space="preserve" font-family="Helvetica-Light,Helvetica" font-size="75.2" fill="#D35854" transform="matrix(1.00, 0.00, -0.00, -1.00, 823.9, 17.3)">k</text></g></svg>