<?xml version="1.0" encoding="UTF-8" standalone="no"?><svg xmlns="http://www.w3.org/2000/svg" xmlns:xlink="http://www.w3.org/1999/xlink" clip-rule="evenodd" stroke-miterlimit="10" viewBox="0 0 1024 768"><desc>SVG generated by Keynote</desc><defs></defs><g transform="matrix(1.00, 0.00, -0.00, -1.00, 0.0, 768.0)"><path d="M 0.0 768.0 L 1024.0 768.0 L 1024.0 0.0 L 0.0 0.0 Z M 0.0 768.0 " fill="#D0E4F3"></path><text xml:space="preserve" font-family="Helvetica-Light,Helvetica" font-size="80.0" fill="#D35854" transform="matrix(1.00, 0.00, -0.00, -1.00, 358.7, 633.4)">S</text><text xml:space="preserve" font-family="Helvetica-Light,Helvetica" font-size="80.0" fill="#D35854" transform="matrix(1.00, 0.00, -0.00, -1.00, 407.6, 633.4)">y</text><text xml:space="preserve" font-family="Helvetica-Light,Helvetica" font-size="80.0" fill="#D35854" transform="matrix(1.00, 0.00, -0.00, -1.00, 447.6, 633.4)">m</text><text xml:space="preserve" font-family="Helvetica-Light,Helvetica" font-size="80.0" fill="#D35854" transform="matrix(1.00, 0.00, -0.00, -1.00, 514.2, 633.4)">b</text><text xml:space="preserve" font-family="Helvetica-Light,Helvetica" font-size="80.0" fill="#D35854" transform="matrix(1.00, 0.00, -0.00, -1.00, 563.1, 633.4)">o</text><text xml:space="preserve" font-family="Helvetica-Light,Helvetica" font-size="80.0" fill="#D35854" transform="matrix(1.00, 0.00, -0.00, -1.00, 607.6, 633.4)">l</text><text xml:space="preserve" font-family="Helvetica-Light,Helvetica" font-size="80.0" fill="#D35854" transform="matrix(1.00, 0.00, -0.00, -1.00, 625.3, 633.4)">s</text><text xml:space="preserve" font-family="CourierNewPS-BoldMT,Courier New" font-weight="bold" font-size="38.0" fill="#000000" transform="matrix(1.00, 0.00, -0.00, -1.00, 79.0, 499.4)">v</text><text xml:space="preserve" font-family="CourierNewPS-BoldMT,Courier New" font-weight="bold" font-size="38.0" fill="#000000" transform="matrix(1.00, 0.00, -0.00, -1.00, 101.8, 499.4)">a</text><text xml:space="preserve" font-family="CourierNewPS-BoldMT,Courier New" font-weight="bold" font-size="38.0" fill="#000000" transform="matrix(1.00, 0.00, -0.00, -1.00, 124.6, 499.4)">r</text><text xml:space="preserve" font-family="CourierNewPSMT,Courier New" font-size="38.0" fill="#000000" transform="matrix(1.00, 0.00, -0.00, -1.00, 147.4, 499.4)"> </text><text xml:space="preserve" font-family="CourierNewPSMT,Courier New" font-size="38.0" fill="#000000" transform="matrix(1.00, 0.00, -0.00, -1.00, 170.2, 499.4)">g</text><text xml:space="preserve" font-family="CourierNewPSMT,Courier New" font-size="38.0" fill="#000000" transform="matrix(1.00, 0.00, -0.00, -1.00, 193.0, 499.4)">o</text><text xml:space="preserve" font-family="CourierNewPSMT,Courier New" font-size="38.0" fill="#000000" transform="matrix(1.00, 0.00, -0.00, -1.00, 215.8, 499.4)">l</text><text xml:space="preserve" font-family="CourierNewPSMT,Courier New" font-size="38.0" fill="#000000" transform="matrix(1.00, 0.00, -0.00, -1.00, 238.6, 499.4)">d</text><text xml:space="preserve" font-family="CourierNewPSMT,Courier New" font-size="38.0" fill="#000000" transform="matrix(1.00, 0.00, -0.00, -1.00, 261.4, 499.4)">S</text><text xml:space="preserve" font-family="CourierNewPSMT,Courier New" font-size="38.0" fill="#000000" transform="matrix(1.00, 0.00, -0.00, -1.00, 284.3, 499.4)">t</text><text xml:space="preserve" font-family="CourierNewPSMT,Courier New" font-size="38.0" fill="#000000" transform="matrix(1.00, 0.00, -0.00, -1.00, 307.1, 499.4)">a</text><text xml:space="preserve" font-family="CourierNewPSMT,Courier New" font-size="38.0" fill="#000000" transform="matrix(1.00, 0.00, -0.00, -1.00, 329.9, 499.4)">r</text><text xml:space="preserve" font-family="CourierNewPSMT,Courier New" font-size="38.0" fill="#000000" transform="matrix(1.00, 0.00, -0.00, -1.00, 352.7, 499.4)"> </text><text xml:space="preserve" font-family="CourierNewPSMT,Courier New" font-size="38.0" fill="#000000" transform="matrix(1.00, 0.00, -0.00, -1.00, 375.5, 499.4)">=</text><text xml:space="preserve" font-family="CourierNewPSMT,Courier New" font-size="38.0" fill="#000000" transform="matrix(1.00, 0.00, -0.00, -1.00, 398.3, 499.4)"> </text><text xml:space="preserve" font-family="CourierNewPSMT,Courier New" font-size="38.0" fill="#000000" transform="matrix(1.00, 0.00, -0.00, -1.00, 421.1, 499.4)">{</text><text xml:space="preserve" font-family="CourierNewPSMT,Courier New" font-size="38.0" fill="#000000" transform="matrix(1.00, 0.00, -0.00, -1.00, 443.9, 499.4)"> </text><text xml:space="preserve" font-family="CourierNewPSMT,Courier New" font-size="38.0" fill="#000000" transform="matrix(1.00, 0.00, -0.00, -1.00, 79.0, 456.4)"> </text><text xml:space="preserve" font-family="CourierNewPSMT,Courier New" font-size="38.0" fill="#000000" transform="matrix(1.00, 0.00, -0.00, -1.00, 101.8, 456.4)"> </text><text xml:space="preserve" font-family="CourierNewPSMT,Courier New" font-size="38.0" fill="#000000" transform="matrix(1.00, 0.00, -0.00, -1.00, 124.6, 456.4)"> </text><text xml:space="preserve" font-family="CourierNewPSMT,Courier New" font-size="38.0" fill="#000000" transform="matrix(1.00, 0.00, -0.00, -1.00, 147.4, 456.4)"> </text><text xml:space="preserve" font-family="CourierNewPSMT,Courier New" font-size="38.0" fill="#000000" transform="matrix(1.00, 0.00, -0.00, -1.00, 170.2, 456.4)">p</text><text xml:space="preserve" font-family="CourierNewPSMT,Courier New" font-size="38.0" fill="#000000" transform="matrix(1.00, 0.00, -0.00, -1.00, 193.0, 456.4)">a</text><text xml:space="preserve" font-family="CourierNewPSMT,Courier New" font-size="38.0" fill="#000000" transform="matrix(1.00, 0.00, -0.00, -1.00, 215.8, 456.4)">t</text><text xml:space="preserve" font-family="CourierNewPSMT,Courier New" font-size="38.0" fill="#000000" transform="matrix(1.00, 0.00, -0.00, -1.00, 238.7, 456.4)">h</text><text xml:space="preserve" font-family="CourierNewPSMT,Courier New" font-size="38.0" fill="#000000" transform="matrix(1.00, 0.00, -0.00, -1.00, 261.5, 456.4)">:</text><text xml:space="preserve" font-family="CourierNewPSMT,Courier New" font-size="38.0" fill="#000000" transform="matrix(1.00, 0.00, -0.00, -1.00, 284.3, 456.4)"> </text><text xml:space="preserve" font-family="CourierNewPSMT,Courier New" font-size="38.0" fill="#CC1C00" transform="matrix(1.00, 0.00, -0.00, -1.00, 307.0, 456.4)">'</text><text xml:space="preserve" font-family="CourierNewPSMT,Courier New" font-size="38.0" fill="#CC1C00" transform="matrix(1.00, 0.00, -0.00, -1.00, 329.8, 456.4)">M</text><text xml:space="preserve" font-family="CourierNewPSMT,Courier New" font-size="38.0" fill="#CC1C00" transform="matrix(1.00, 0.00, -0.00, -1.00, 352.7, 456.4)"> </text><text xml:space="preserve" font-family="CourierNewPSMT,Courier New" font-size="38.0" fill="#CC1C00" transform="matrix(1.00, 0.00, -0.00, -1.00, 375.5, 456.4)">1</text><text xml:space="preserve" font-family="CourierNewPSMT,Courier New" font-size="38.0" fill="#CC1C00" transform="matrix(1.00, 0.00, -0.00, -1.00, 398.3, 456.4)">2</text><text xml:space="preserve" font-family="CourierNewPSMT,Courier New" font-size="38.0" fill="#CC1C00" transform="matrix(1.00, 0.00, -0.00, -1.00, 421.1, 456.4)">5</text><text xml:space="preserve" font-family="CourierNewPSMT,Courier New" font-size="38.0" fill="#CC1C00" transform="matrix(1.00, 0.00, -0.00, -1.00, 443.9, 456.4)">,</text><text xml:space="preserve" font-family="CourierNewPSMT,Courier New" font-size="38.0" fill="#CC1C00" transform="matrix(1.00, 0.00, -0.00, -1.00, 466.7, 456.4)">5</text><text xml:space="preserve" font-family="CourierNewPSMT,Courier New" font-size="38.0" fill="#CC1C00" transform="matrix(1.00, 0.00, -0.00, -1.00, 489.5, 456.4)"> </text><text xml:space="preserve" font-family="CourierNewPSMT,Courier New" font-size="38.0" fill="#CC1C00" transform="matrix(1.00, 0.00, -0.00, -1.00, 512.3, 456.4)">1</text><text xml:space="preserve" font-family="CourierNewPSMT,Courier New" font-size="38.0" fill="#CC1C00" transform="matrix(1.00, 0.00, -0.00, -1.00, 535.1, 456.4)">5</text><text xml:space="preserve" font-family="CourierNewPSMT,Courier New" font-size="38.0" fill="#CC1C00" transform="matrix(1.00, 0.00, -0.00, -1.00, 557.9, 456.4)">5</text><text xml:space="preserve" font-family="CourierNewPSMT,Courier New" font-size="38.0" fill="#CC1C00" transform="matrix(1.00, 0.00, -0.00, -1.00, 580.7, 456.4)">,</text><text xml:space="preserve" font-family="CourierNewPSMT,Courier New" font-size="38.0" fill="#CC1C00" transform="matrix(1.00, 0.00, -0.00, -1.00, 603.5, 456.4)">9</text><text xml:space="preserve" font-family="CourierNewPSMT,Courier New" font-size="38.0" fill="#CC1C00" transform="matrix(1.00, 0.00, -0.00, -1.00, 626.3, 456.4)">0</text><text xml:space="preserve" font-family="CourierNewPSMT,Courier New" font-size="38.0" fill="#CC1C00" transform="matrix(1.00, 0.00, -0.00, -1.00, 649.1, 456.4)"> </text><text xml:space="preserve" font-family="CourierNewPSMT,Courier New" font-size="38.0" fill="#CC1C00" transform="matrix(1.00, 0.00, -0.00, -1.00, 672.0, 456.4)">2</text><text xml:space="preserve" font-family="CourierNewPSMT,Courier New" font-size="38.0" fill="#CC1C00" transform="matrix(1.00, 0.00, -0.00, -1.00, 694.8, 456.4)">4</text><text xml:space="preserve" font-family="CourierNewPSMT,Courier New" font-size="38.0" fill="#CC1C00" transform="matrix(1.00, 0.00, -0.00, -1.00, 717.6, 456.4)">5</text><text xml:space="preserve" font-family="CourierNewPSMT,Courier New" font-size="38.0" fill="#CC1C00" transform="matrix(1.00, 0.00, -0.00, -1.00, 740.4, 456.4)">,</text><text xml:space="preserve" font-family="CourierNewPSMT,Courier New" font-size="38.0" fill="#CC1C00" transform="matrix(1.00, 0.00, -0.00, -1.00, 763.2, 456.4)">9</text><text xml:space="preserve" font-family="CourierNewPSMT,Courier New" font-size="38.0" fill="#CC1C00" transform="matrix(1.00, 0.00, -0.00, -1.00, 786.0, 456.4)">0</text><text xml:space="preserve" font-family="CourierNewPSMT,Courier New" font-size="38.0" fill="#CC1C00" transform="matrix(1.00, 0.00, -0.00, -1.00, 808.8, 456.4)"> </text><text xml:space="preserve" font-family="CourierNewPSMT,Courier New" font-size="38.0" fill="#CC1C00" transform="matrix(1.00, 0.00, -0.00, -1.00, 79.0, 413.4)">1</text><text xml:space="preserve" font-family="CourierNewPSMT,Courier New" font-size="38.0" fill="#CC1C00" transform="matrix(1.00, 0.00, -0.00, -1.00, 101.8, 413.4)">7</text><text xml:space="preserve" font-family="CourierNewPSMT,Courier New" font-size="38.0" fill="#CC1C00" transform="matrix(1.00, 0.00, -0.00, -1.00, 124.6, 413.4)">5</text><text xml:space="preserve" font-family="CourierNewPSMT,Courier New" font-size="38.0" fill="#CC1C00" transform="matrix(1.00, 0.00, -0.00, -1.00, 147.4, 413.4)">,</text><text xml:space="preserve" font-family="CourierNewPSMT,Courier New" font-size="38.0" fill="#CC1C00" transform="matrix(1.00, 0.00, -0.00, -1.00, 170.2, 413.4)">1</text><text xml:space="preserve" font-family="CourierNewPSMT,Courier New" font-size="38.0" fill="#CC1C00" transform="matrix(1.00, 0.00, -0.00, -1.00, 193.0, 413.4)">4</text><text xml:space="preserve" font-family="CourierNewPSMT,Courier New" font-size="38.0" fill="#CC1C00" transform="matrix(1.00, 0.00, -0.00, -1.00, 215.8, 413.4)">5</text><text xml:space="preserve" font-family="CourierNewPSMT,Courier New" font-size="38.0" fill="#CC1C00" transform="matrix(1.00, 0.00, -0.00, -1.00, 238.7, 413.4)"> </text><text xml:space="preserve" font-family="CourierNewPSMT,Courier New" font-size="38.0" fill="#CC1C00" transform="matrix(1.00, 0.00, -0.00, -1.00, 261.5, 413.4)">2</text><text xml:space="preserve" font-family="CourierNewPSMT,Courier New" font-size="38.0" fill="#CC1C00" transform="matrix(1.00, 0.00, -0.00, -1.00, 284.3, 413.4)">0</text><text xml:space="preserve" font-family="CourierNewPSMT,Courier New" font-size="38.0" fill="#CC1C00" transform="matrix(1.00, 0.00, -0.00, -1.00, 307.1, 413.4)">0</text><text xml:space="preserve" font-family="CourierNewPSMT,Courier New" font-size="38.0" fill="#CC1C00" transform="matrix(1.00, 0.00, -0.00, -1.00, 329.9, 413.4)">,</text><text xml:space="preserve" font-family="CourierNewPSMT,Courier New" font-size="38.0" fill="#CC1C00" transform="matrix(1.00, 0.00, -0.00, -1.00, 352.7, 413.4)">2</text><text xml:space="preserve" font-family="CourierNewPSMT,Courier New" font-size="38.0" fill="#CC1C00" transform="matrix(1.00, 0.00, -0.00, -1.00, 375.5, 413.4)">3</text><text xml:space="preserve" font-family="CourierNewPSMT,Courier New" font-size="38.0" fill="#CC1C00" transform="matrix(1.00, 0.00, -0.00, -1.00, 398.3, 413.4)">0</text><text xml:space="preserve" font-family="CourierNewPSMT,Courier New" font-size="38.0" fill="#CC1C00" transform="matrix(1.00, 0.00, -0.00, -1.00, 421.1, 413.4)"> </text><text xml:space="preserve" font-family="CourierNewPSMT,Courier New" font-size="38.0" fill="#CC1C00" transform="matrix(1.00, 0.00, -0.00, -1.00, 443.9, 413.4)">1</text><text xml:space="preserve" font-family="CourierNewPSMT,Courier New" font-size="38.0" fill="#CC1C00" transform="matrix(1.00, 0.00, -0.00, -1.00, 466.7, 413.4)">2</text><text xml:space="preserve" font-family="CourierNewPSMT,Courier New" font-size="38.0" fill="#CC1C00" transform="matrix(1.00, 0.00, -0.00, -1.00, 489.5, 413.4)">5</text><text xml:space="preserve" font-family="CourierNewPSMT,Courier New" font-size="38.0" fill="#CC1C00" transform="matrix(1.00, 0.00, -0.00, -1.00, 512.3, 413.4)">,</text><text xml:space="preserve" font-family="CourierNewPSMT,Courier New" font-size="38.0" fill="#CC1C00" transform="matrix(1.00, 0.00, -0.00, -1.00, 535.2, 413.4)">1</text><text xml:space="preserve" font-family="CourierNewPSMT,Courier New" font-size="38.0" fill="#CC1C00" transform="matrix(1.00, 0.00, -0.00, -1.00, 558.0, 413.4)">8</text><text xml:space="preserve" font-family="CourierNewPSMT,Courier New" font-size="38.0" fill="#CC1C00" transform="matrix(1.00, 0.00, -0.00, -1.00, 580.8, 413.4)">0</text><text xml:space="preserve" font-family="CourierNewPSMT,Courier New" font-size="38.0" fill="#CC1C00" transform="matrix(1.00, 0.00, -0.00, -1.00, 603.6, 413.4)"> </text><text xml:space="preserve" font-family="CourierNewPSMT,Courier New" font-size="38.0" fill="#CC1C00" transform="matrix(1.00, 0.00, -0.00, -1.00, 626.4, 413.4)">5</text><text xml:space="preserve" font-family="CourierNewPSMT,Courier New" font-size="38.0" fill="#CC1C00" transform="matrix(1.00, 0.00, -0.00, -1.00, 649.2, 413.4)">0</text><text xml:space="preserve" font-family="CourierNewPSMT,Courier New" font-size="38.0" fill="#CC1C00" transform="matrix(1.00, 0.00, -0.00, -1.00, 672.0, 413.4)">,</text><text xml:space="preserve" font-family="CourierNewPSMT,Courier New" font-size="38.0" fill="#CC1C00" transform="matrix(1.00, 0.00, -0.00, -1.00, 694.8, 413.4)">2</text><text xml:space="preserve" font-family="CourierNewPSMT,Courier New" font-size="38.0" fill="#CC1C00" transform="matrix(1.00, 0.00, -0.00, -1.00, 717.6, 413.4)">3</text><text xml:space="preserve" font-family="CourierNewPSMT,Courier New" font-size="38.0" fill="#CC1C00" transform="matrix(1.00, 0.00, -0.00, -1.00, 740.4, 413.4)">0</text><text xml:space="preserve" font-family="CourierNewPSMT,Courier New" font-size="38.0" fill="#CC1C00" transform="matrix(1.00, 0.00, -0.00, -1.00, 763.2, 413.4)"> </text><text xml:space="preserve" font-family="CourierNewPSMT,Courier New" font-size="38.0" fill="#CC1C00" transform="matrix(1.00, 0.00, -0.00, -1.00, 786.0, 413.4)">7</text><text xml:space="preserve" font-family="CourierNewPSMT,Courier New" font-size="38.0" fill="#CC1C00" transform="matrix(1.00, 0.00, -0.00, -1.00, 808.8, 413.4)">5</text><text xml:space="preserve" font-family="CourierNewPSMT,Courier New" font-size="38.0" fill="#CC1C00" transform="matrix(1.00, 0.00, -0.00, -1.00, 831.6, 413.4)">,</text><text xml:space="preserve" font-family="CourierNewPSMT,Courier New" font-size="38.0" fill="#CC1C00" transform="matrix(1.00, 0.00, -0.00, -1.00, 854.5, 413.4)">1</text><text xml:space="preserve" font-family="CourierNewPSMT,Courier New" font-size="38.0" fill="#CC1C00" transform="matrix(1.00, 0.00, -0.00, -1.00, 877.3, 413.4)">4</text><text xml:space="preserve" font-family="CourierNewPSMT,Courier New" font-size="38.0" fill="#CC1C00" transform="matrix(1.00, 0.00, -0.00, -1.00, 900.1, 413.4)">5</text><text xml:space="preserve" font-family="CourierNewPSMT,Courier New" font-size="38.0" fill="#CC1C00" transform="matrix(1.00, 0.00, -0.00, -1.00, 922.9, 413.4)"> </text><text xml:space="preserve" font-family="CourierNewPSMT,Courier New" font-size="38.0" fill="#CC1C00" transform="matrix(1.00, 0.00, -0.00, -1.00, 79.0, 370.4)">5</text><text xml:space="preserve" font-family="CourierNewPSMT,Courier New" font-size="38.0" fill="#CC1C00" transform="matrix(1.00, 0.00, -0.00, -1.00, 101.8, 370.4)">,</text><text xml:space="preserve" font-family="CourierNewPSMT,Courier New" font-size="38.0" fill="#CC1C00" transform="matrix(1.00, 0.00, -0.00, -1.00, 124.6, 370.4)">9</text><text xml:space="preserve" font-family="CourierNewPSMT,Courier New" font-size="38.0" fill="#CC1C00" transform="matrix(1.00, 0.00, -0.00, -1.00, 147.4, 370.4)">0</text><text xml:space="preserve" font-family="CourierNewPSMT,Courier New" font-size="38.0" fill="#CC1C00" transform="matrix(1.00, 0.00, -0.00, -1.00, 170.2, 370.4)"> </text><text xml:space="preserve" font-family="CourierNewPSMT,Courier New" font-size="38.0" fill="#CC1C00" transform="matrix(1.00, 0.00, -0.00, -1.00, 193.0, 370.4)">9</text><text xml:space="preserve" font-family="CourierNewPSMT,Courier New" font-size="38.0" fill="#CC1C00" transform="matrix(1.00, 0.00, -0.00, -1.00, 215.8, 370.4)">5</text><text xml:space="preserve" font-family="CourierNewPSMT,Courier New" font-size="38.0" fill="#CC1C00" transform="matrix(1.00, 0.00, -0.00, -1.00, 238.7, 370.4)">,</text><text xml:space="preserve" font-family="CourierNewPSMT,Courier New" font-size="38.0" fill="#CC1C00" transform="matrix(1.00, 0.00, -0.00, -1.00, 261.5, 370.4)">9</text><text xml:space="preserve" font-family="CourierNewPSMT,Courier New" font-size="38.0" fill="#CC1C00" transform="matrix(1.00, 0.00, -0.00, -1.00, 284.3, 370.4)">0</text><text xml:space="preserve" font-family="CourierNewPSMT,Courier New" font-size="38.0" fill="#CC1C00" transform="matrix(1.00, 0.00, -0.00, -1.00, 307.1, 370.4)"> </text><text xml:space="preserve" font-family="CourierNewPSMT,Courier New" font-size="38.0" fill="#CC1C00" transform="matrix(1.00, 0.00, -0.00, -1.00, 329.9, 370.4)">z</text><text xml:space="preserve" font-family="CourierNewPSMT,Courier New" font-size="38.0" fill="#CC1C00" transform="matrix(1.00, 0.00, -0.00, -1.00, 352.7, 370.4)">'</text><text xml:space="preserve" font-family="CourierNewPSMT,Courier New" font-size="38.0" fill="#000000" transform="matrix(1.00, 0.00, -0.00, -1.00, 375.4, 370.4)">,</text><text xml:space="preserve" font-family="CourierNewPSMT,Courier New" font-size="38.0" fill="#000000" transform="matrix(1.00, 0.00, -0.00, -1.00, 398.3, 370.4)"> </text><text xml:space="preserve" font-family="CourierNewPSMT,Courier New" font-size="38.0" fill="#000000" transform="matrix(1.00, 0.00, -0.00, -1.00, 79.0, 327.4)"> </text><text xml:space="preserve" font-family="CourierNewPSMT,Courier New" font-size="38.0" fill="#000000" transform="matrix(1.00, 0.00, -0.00, -1.00, 101.8, 327.4)"> </text><text xml:space="preserve" font-family="CourierNewPSMT,Courier New" font-size="38.0" fill="#000000" transform="matrix(1.00, 0.00, -0.00, -1.00, 124.6, 327.4)"> </text><text xml:space="preserve" font-family="CourierNewPSMT,Courier New" font-size="38.0" fill="#000000" transform="matrix(1.00, 0.00, -0.00, -1.00, 147.4, 327.4)"> </text><text xml:space="preserve" font-family="CourierNewPSMT,Courier New" font-size="38.0" fill="#000000" transform="matrix(1.00, 0.00, -0.00, -1.00, 170.2, 327.4)">f</text><text xml:space="preserve" font-family="CourierNewPSMT,Courier New" font-size="38.0" fill="#000000" transform="matrix(1.00, 0.00, -0.00, -1.00, 193.0, 327.4)">i</text><text xml:space="preserve" font-family="CourierNewPSMT,Courier New" font-size="38.0" fill="#000000" transform="matrix(1.00, 0.00, -0.00, -1.00, 215.8, 327.4)">l</text><text xml:space="preserve" font-family="CourierNewPSMT,Courier New" font-size="38.0" fill="#000000" transform="matrix(1.00, 0.00, -0.00, -1.00, 238.7, 327.4)">l</text><text xml:space="preserve" font-family="CourierNewPSMT,Courier New" font-size="38.0" fill="#000000" transform="matrix(1.00, 0.00, -0.00, -1.00, 261.5, 327.4)">C</text><text xml:space="preserve" font-family="CourierNewPSMT,Courier New" font-size="38.0" fill="#000000" transform="matrix(1.00, 0.00, -0.00, -1.00, 284.3, 327.4)">o</text><text xml:space="preserve" font-family="CourierNewPSMT,Courier New" font-size="38.0" fill="#000000" transform="matrix(1.00, 0.00, -0.00, -1.00, 307.1, 327.4)">l</text><text xml:space="preserve" font-family="CourierNewPSMT,Courier New" font-size="38.0" fill="#000000" transform="matrix(1.00, 0.00, -0.00, -1.00, 329.9, 327.4)">o</text><text xml:space="preserve" font-family="CourierNewPSMT,Courier New" font-size="38.0" fill="#000000" transform="matrix(1.00, 0.00, -0.00, -1.00, 352.7, 327.4)">r</text><text xml:space="preserve" font-family="CourierNewPSMT,Courier New" font-size="38.0" fill="#000000" transform="matrix(1.00, 0.00, -0.00, -1.00, 375.5, 327.4)">:</text><text xml:space="preserve" font-family="CourierNewPSMT,Courier New" font-size="38.0" fill="#000000" transform="matrix(1.00, 0.00, -0.00, -1.00, 398.3, 327.4)"> </text><text xml:space="preserve" font-family="CourierNewPSMT,Courier New" font-size="38.0" fill="#CC1C00" transform="matrix(1.00, 0.00, -0.00, -1.00, 421.1, 327.4)">'</text><text xml:space="preserve" font-family="CourierNewPSMT,Courier New" font-size="38.0" fill="#CC1C00" transform="matrix(1.00, 0.00, -0.00, -1.00, 443.9, 327.4)">y</text><text xml:space="preserve" font-family="CourierNewPSMT,Courier New" font-size="38.0" fill="#CC1C00" transform="matrix(1.00, 0.00, -0.00, -1.00, 466.7, 327.4)">e</text><text xml:space="preserve" font-family="CourierNewPSMT,Courier New" font-size="38.0" fill="#CC1C00" transform="matrix(1.00, 0.00, -0.00, -1.00, 489.5, 327.4)">l</text><text xml:space="preserve" font-family="CourierNewPSMT,Courier New" font-size="38.0" fill="#CC1C00" transform="matrix(1.00, 0.00, -0.00, -1.00, 512.3, 327.4)">l</text><text xml:space="preserve" font-family="CourierNewPSMT,Courier New" font-size="38.0" fill="#CC1C00" transform="matrix(1.00, 0.00, -0.00, -1.00, 535.1, 327.4)">o</text><text xml:space="preserve" font-family="CourierNewPSMT,Courier New" font-size="38.0" fill="#CC1C00" transform="matrix(1.00, 0.00, -0.00, -1.00, 557.9, 327.4)">w</text><text xml:space="preserve" font-family="CourierNewPSMT,Courier New" font-size="38.0" fill="#CC1C00" transform="matrix(1.00, 0.00, -0.00, -1.00, 580.7, 327.4)">'</text><text xml:space="preserve" font-family="CourierNewPSMT,Courier New" font-size="38.0" fill="#000000" transform="matrix(1.00, 0.00, -0.00, -1.00, 603.5, 327.4)">,</text><text xml:space="preserve" font-family="CourierNewPSMT,Courier New" font-size="38.0" fill="#000000" transform="matrix(1.00, 0.00, -0.00, -1.00, 626.3, 327.4)"> </text><text xml:space="preserve" font-family="CourierNewPSMT,Courier New" font-size="38.0" fill="#000000" transform="matrix(1.00, 0.00, -0.00, -1.00, 79.0, 284.4)"> </text><text xml:space="preserve" font-family="CourierNewPSMT,Courier New" font-size="38.0" fill="#000000" transform="matrix(1.00, 0.00, -0.00, -1.00, 101.8, 284.4)"> </text><text xml:space="preserve" font-family="CourierNewPSMT,Courier New" font-size="38.0" fill="#000000" transform="matrix(1.00, 0.00, -0.00, -1.00, 124.6, 284.4)"> </text><text xml:space="preserve" font-family="CourierNewPSMT,Courier New" font-size="38.0" fill="#000000" transform="matrix(1.00, 0.00, -0.00, -1.00, 147.4, 284.4)"> </text><text xml:space="preserve" font-family="CourierNewPSMT,Courier New" font-size="38.0" fill="#000000" transform="matrix(1.00, 0.00, -0.00, -1.00, 170.2, 284.4)">f</text><text xml:space="preserve" font-family="CourierNewPSMT,Courier New" font-size="38.0" fill="#000000" transform="matrix(1.00, 0.00, -0.00, -1.00, 193.0, 284.4)">i</text><text xml:space="preserve" font-family="CourierNewPSMT,Courier New" font-size="38.0" fill="#000000" transform="matrix(1.00, 0.00, -0.00, -1.00, 215.8, 284.4)">l</text><text xml:space="preserve" font-family="CourierNewPSMT,Courier New" font-size="38.0" fill="#000000" transform="matrix(1.00, 0.00, -0.00, -1.00, 238.7, 284.4)">l</text><text xml:space="preserve" font-family="CourierNewPSMT,Courier New" font-size="38.0" fill="#000000" transform="matrix(1.00, 0.00, -0.00, -1.00, 261.5, 284.4)">O</text><text xml:space="preserve" font-family="CourierNewPSMT,Courier New" font-size="38.0" fill="#000000" transform="matrix(1.00, 0.00, -0.00, -1.00, 284.3, 284.4)">p</text><text xml:space="preserve" font-family="CourierNewPSMT,Courier New" font-size="38.0" fill="#000000" transform="matrix(1.00, 0.00, -0.00, -1.00, 307.1, 284.4)">a</text><text xml:space="preserve" font-family="CourierNewPSMT,Courier New" font-size="38.0" fill="#000000" transform="matrix(1.00, 0.00, -0.00, -1.00, 329.9, 284.4)">c</text><text xml:space="preserve" font-family="CourierNewPSMT,Courier New" font-size="38.0" fill="#000000" transform="matrix(1.00, 0.00, -0.00, -1.00, 352.7, 284.4)">i</text><text xml:space="preserve" font-family="CourierNewPSMT,Courier New" font-size="38.0" fill="#000000" transform="matrix(1.00, 0.00, -0.00, -1.00, 375.5, 284.4)">t</text><text xml:space="preserve" font-family="CourierNewPSMT,Courier New" font-size="38.0" fill="#000000" transform="matrix(1.00, 0.00, -0.00, -1.00, 398.3, 284.4)">y</text><text xml:space="preserve" font-family="CourierNewPSMT,Courier New" font-size="38.0" fill="#000000" transform="matrix(1.00, 0.00, -0.00, -1.00, 421.1, 284.4)">:</text><text xml:space="preserve" font-family="CourierNewPSMT,Courier New" font-size="38.0" fill="#000000" transform="matrix(1.00, 0.00, -0.00, -1.00, 443.9, 284.4)"> </text><text xml:space="preserve" font-family="CourierNewPSMT,Courier New" font-size="38.0" fill="#BE8F00" transform="matrix(1.00, 0.00, -0.00, -1.00, 466.7, 284.4)">0</text><text xml:space="preserve" font-family="CourierNewPSMT,Courier New" font-size="38.0" fill="#BE8F00" transform="matrix(1.00, 0.00, -0.00, -1.00, 489.5, 284.4)">.</text><text xml:space="preserve" font-family="CourierNewPSMT,Courier New" font-size="38.0" fill="#BE8F00" transform="matrix(1.00, 0.00, -0.00, -1.00, 512.3, 284.4)">8</text><text xml:space="preserve" font-family="CourierNewPSMT,Courier New" font-size="38.0" fill="#000000" transform="matrix(1.00, 0.00, -0.00, -1.00, 535.1, 284.4)">,</text><text xml:space="preserve" font-family="CourierNewPSMT,Courier New" font-size="38.0" fill="#000000" transform="matrix(1.00, 0.00, -0.00, -1.00, 557.9, 284.4)"> </text><text xml:space="preserve" font-family="CourierNewPSMT,Courier New" font-size="38.0" fill="#000000" transform="matrix(1.00, 0.00, -0.00, -1.00, 79.0, 241.4)"> </text><text xml:space="preserve" font-family="CourierNewPSMT,Courier New" font-size="38.0" fill="#000000" transform="matrix(1.00, 0.00, -0.00, -1.00, 101.8, 241.4)"> </text><text xml:space="preserve" font-family="CourierNewPSMT,Courier New" font-size="38.0" fill="#000000" transform="matrix(1.00, 0.00, -0.00, -1.00, 124.6, 241.4)"> </text><text xml:space="preserve" font-family="CourierNewPSMT,Courier New" font-size="38.0" fill="#000000" transform="matrix(1.00, 0.00, -0.00, -1.00, 147.4, 241.4)"> </text><text xml:space="preserve" font-family="CourierNewPSMT,Courier New" font-size="38.0" fill="#000000" transform="matrix(1.00, 0.00, -0.00, -1.00, 170.2, 241.4)">s</text><text xml:space="preserve" font-family="CourierNewPSMT,Courier New" font-size="38.0" fill="#000000" transform="matrix(1.00, 0.00, -0.00, -1.00, 193.0, 241.4)">c</text><text xml:space="preserve" font-family="CourierNewPSMT,Courier New" font-size="38.0" fill="#000000" transform="matrix(1.00, 0.00, -0.00, -1.00, 215.8, 241.4)">a</text><text xml:space="preserve" font-family="CourierNewPSMT,Courier New" font-size="38.0" fill="#000000" transform="matrix(1.00, 0.00, -0.00, -1.00, 238.7, 241.4)">l</text><text xml:space="preserve" font-family="CourierNewPSMT,Courier New" font-size="38.0" fill="#000000" transform="matrix(1.00, 0.00, -0.00, -1.00, 261.5, 241.4)">e</text><text xml:space="preserve" font-family="CourierNewPSMT,Courier New" font-size="38.0" fill="#000000" transform="matrix(1.00, 0.00, -0.00, -1.00, 284.3, 241.4)">:</text><text xml:space="preserve" font-family="CourierNewPSMT,Courier New" font-size="38.0" fill="#000000" transform="matrix(1.00, 0.00, -0.00, -1.00, 307.1, 241.4)"> </text><text xml:space="preserve" font-family="CourierNewPSMT,Courier New" font-size="38.0" fill="#BE8F00" transform="matrix(1.00, 0.00, -0.00, -1.00, 329.8, 241.4)">1</text><text xml:space="preserve" font-family="CourierNewPSMT,Courier New" font-size="38.0" fill="#000000" transform="matrix(1.00, 0.00, -0.00, -1.00, 352.6, 241.4)">,</text><text xml:space="preserve" font-family="CourierNewPSMT,Courier New" font-size="38.0" fill="#000000" transform="matrix(1.00, 0.00, -0.00, -1.00, 375.5, 241.4)"> </text><text xml:space="preserve" font-family="CourierNewPSMT,Courier New" font-size="38.0" fill="#000000" transform="matrix(1.00, 0.00, -0.00, -1.00, 79.0, 198.4)"> </text><text xml:space="preserve" font-family="CourierNewPSMT,Courier New" font-size="38.0" fill="#000000" transform="matrix(1.00, 0.00, -0.00, -1.00, 101.8, 198.4)"> </text><text xml:space="preserve" font-family="CourierNewPSMT,Courier New" font-size="38.0" fill="#000000" transform="matrix(1.00, 0.00, -0.00, -1.00, 124.6, 198.4)"> </text><text xml:space="preserve" font-family="CourierNewPSMT,Courier New" font-size="38.0" fill="#000000" transform="matrix(1.00, 0.00, -0.00, -1.00, 147.4, 198.4)"> </text><text xml:space="preserve" font-family="CourierNewPSMT,Courier New" font-size="38.0" fill="#000000" transform="matrix(1.00, 0.00, -0.00, -1.00, 170.2, 198.4)">s</text><text xml:space="preserve" font-family="CourierNewPSMT,Courier New" font-size="38.0" fill="#000000" transform="matrix(1.00, 0.00, -0.00, -1.00, 193.0, 198.4)">t</text><text xml:space="preserve" font-family="CourierNewPSMT,Courier New" font-size="38.0" fill="#000000" transform="matrix(1.00, 0.00, -0.00, -1.00, 215.8, 198.4)">r</text><text xml:space="preserve" font-family="CourierNewPSMT,Courier New" font-size="38.0" fill="#000000" transform="matrix(1.00, 0.00, -0.00, -1.00, 238.7, 198.4)">o</text><text xml:space="preserve" font-family="CourierNewPSMT,Courier New" font-size="38.0" fill="#000000" transform="matrix(1.00, 0.00, -0.00, -1.00, 261.5, 198.4)">k</text><text xml:space="preserve" font-family="CourierNewPSMT,Courier New" font-size="38.0" fill="#000000" transform="matrix(1.00, 0.00, -0.00, -1.00, 284.3, 198.4)">e</text><text xml:space="preserve" font-family="CourierNewPSMT,Courier New" font-size="38.0" fill="#000000" transform="matrix(1.00, 0.00, -0.00, -1.00, 307.1, 198.4)">C</text><text xml:space="preserve" font-family="CourierNewPSMT,Courier New" font-size="38.0" fill="#000000" transform="matrix(1.00, 0.00, -0.00, -1.00, 329.9, 198.4)">o</text><text xml:space="preserve" font-family="CourierNewPSMT,Courier New" font-size="38.0" fill="#000000" transform="matrix(1.00, 0.00, -0.00, -1.00, 352.7, 198.4)">l</text><text xml:space="preserve" font-family="CourierNewPSMT,Courier New" font-size="38.0" fill="#000000" transform="matrix(1.00, 0.00, -0.00, -1.00, 375.5, 198.4)">o</text><text xml:space="preserve" font-family="CourierNewPSMT,Courier New" font-size="38.0" fill="#000000" transform="matrix(1.00, 0.00, -0.00, -1.00, 398.3, 198.4)">r</text><text xml:space="preserve" font-family="CourierNewPSMT,Courier New" font-size="38.0" fill="#000000" transform="matrix(1.00, 0.00, -0.00, -1.00, 421.1, 198.4)">:</text><text xml:space="preserve" font-family="CourierNewPSMT,Courier New" font-size="38.0" fill="#000000" transform="matrix(1.00, 0.00, -0.00, -1.00, 443.9, 198.4)"> </text><text xml:space="preserve" font-family="CourierNewPSMT,Courier New" font-size="38.0" fill="#CC1C00" transform="matrix(1.00, 0.00, -0.00, -1.00, 466.7, 198.4)">'</text><text xml:space="preserve" font-family="CourierNewPSMT,Courier New" font-size="38.0" fill="#CC1C00" transform="matrix(1.00, 0.00, -0.00, -1.00, 489.5, 198.4)">g</text><text xml:space="preserve" font-family="CourierNewPSMT,Courier New" font-size="38.0" fill="#CC1C00" transform="matrix(1.00, 0.00, -0.00, -1.00, 512.3, 198.4)">o</text><text xml:space="preserve" font-family="CourierNewPSMT,Courier New" font-size="38.0" fill="#CC1C00" transform="matrix(1.00, 0.00, -0.00, -1.00, 535.1, 198.4)">l</text><text xml:space="preserve" font-family="CourierNewPSMT,Courier New" font-size="38.0" fill="#CC1C00" transform="matrix(1.00, 0.00, -0.00, -1.00, 557.9, 198.4)">d</text><text xml:space="preserve" font-family="CourierNewPSMT,Courier New" font-size="38.0" fill="#CC1C00" transform="matrix(1.00, 0.00, -0.00, -1.00, 580.7, 198.4)">'</text><text xml:space="preserve" font-family="CourierNewPSMT,Courier New" font-size="38.0" fill="#000000" transform="matrix(1.00, 0.00, -0.00, -1.00, 603.5, 198.4)">,</text><text xml:space="preserve" font-family="CourierNewPSMT,Courier New" font-size="38.0" fill="#000000" transform="matrix(1.00, 0.00, -0.00, -1.00, 626.3, 198.4)"> </text><text xml:space="preserve" font-family="CourierNewPSMT,Courier New" font-size="38.0" fill="#000000" transform="matrix(1.00, 0.00, -0.00, -1.00, 79.0, 155.4)"> </text><text xml:space="preserve" font-family="CourierNewPSMT,Courier New" font-size="38.0" fill="#000000" transform="matrix(1.00, 0.00, -0.00, -1.00, 101.8, 155.4)"> </text><text xml:space="preserve" font-family="CourierNewPSMT,Courier New" font-size="38.0" fill="#000000" transform="matrix(1.00, 0.00, -0.00, -1.00, 124.6, 155.4)"> </text><text xml:space="preserve" font-family="CourierNewPSMT,Courier New" font-size="38.0" fill="#000000" transform="matrix(1.00, 0.00, -0.00, -1.00, 147.4, 155.4)"> </text><text xml:space="preserve" font-family="CourierNewPSMT,Courier New" font-size="38.0" fill="#000000" transform="matrix(1.00, 0.00, -0.00, -1.00, 170.2, 155.4)">s</text><text xml:space="preserve" font-family="CourierNewPSMT,Courier New" font-size="38.0" fill="#000000" transform="matrix(1.00, 0.00, -0.00, -1.00, 193.0, 155.4)">t</text><text xml:space="preserve" font-family="CourierNewPSMT,Courier New" font-size="38.0" fill="#000000" transform="matrix(1.00, 0.00, -0.00, -1.00, 215.8, 155.4)">r</text><text xml:space="preserve" font-family="CourierNewPSMT,Courier New" font-size="38.0" fill="#000000" transform="matrix(1.00, 0.00, -0.00, -1.00, 238.7, 155.4)">o</text><text xml:space="preserve" font-family="CourierNewPSMT,Courier New" font-size="38.0" fill="#000000" transform="matrix(1.00, 0.00, -0.00, -1.00, 261.5, 155.4)">k</text><text xml:space="preserve" font-family="CourierNewPSMT,Courier New" font-size="38.0" fill="#000000" transform="matrix(1.00, 0.00, -0.00, -1.00, 284.3, 155.4)">e</text><text xml:space="preserve" font-family="CourierNewPSMT,Courier New" font-size="38.0" fill="#000000" transform="matrix(1.00, 0.00, -0.00, -1.00, 307.1, 155.4)">W</text><text xml:space="preserve" font-family="CourierNewPSMT,Courier New" font-size="38.0" fill="#000000" transform="matrix(1.00, 0.00, -0.00, -1.00, 329.9, 155.4)">e</text><text xml:space="preserve" font-family="CourierNewPSMT,Courier New" font-size="38.0" fill="#000000" transform="matrix(1.00, 0.00, -0.00, -1.00, 352.7, 155.4)">i</text><text xml:space="preserve" font-family="CourierNewPSMT,Courier New" font-size="38.0" fill="#000000" transform="matrix(1.00, 0.00, -0.00, -1.00, 375.5, 155.4)">g</text><text xml:space="preserve" font-family="CourierNewPSMT,Courier New" font-size="38.0" fill="#000000" transform="matrix(1.00, 0.00, -0.00, -1.00, 398.3, 155.4)">h</text><text xml:space="preserve" font-family="CourierNewPSMT,Courier New" font-size="38.0" fill="#000000" transform="matrix(1.00, 0.00, -0.00, -1.00, 421.1, 155.4)">t</text><text xml:space="preserve" font-family="CourierNewPSMT,Courier New" font-size="38.0" fill="#000000" transform="matrix(1.00, 0.00, -0.00, -1.00, 443.9, 155.4)">:</text><text xml:space="preserve" font-family="CourierNewPSMT,Courier New" font-size="38.0" fill="#000000" transform="matrix(1.00, 0.00, -0.00, -1.00, 466.7, 155.4)"> </text><text xml:space="preserve" font-family="CourierNewPSMT,Courier New" font-size="38.0" fill="#BE8F00" transform="matrix(1.00, 0.00, -0.00, -1.00, 489.5, 155.4)">1</text><text xml:space="preserve" font-family="CourierNewPSMT,Courier New" font-size="38.0" fill="#BE8F00" transform="matrix(1.00, 0.00, -0.00, -1.00, 512.3, 155.4)">4</text><text xml:space="preserve" font-family="CourierNewPSMT,Courier New" font-size="38.0" fill="#000000" transform="matrix(1.00, 0.00, -0.00, -1.00, 535.1, 155.4)"> </text><text xml:space="preserve" font-family="CourierNewPSMT,Courier New" font-size="38.0" fill="#000000" transform="matrix(1.00, 0.00, -0.00, -1.00, 79.0, 112.4)">}</text><text xml:space="preserve" font-family="CourierNewPSMT,Courier New" font-size="38.0" fill="#000000" transform="matrix(1.00, 0.00, -0.00, -1.00, 101.8, 112.4)">;</text></g></svg>