<?xml version="1.0" encoding="UTF-8" standalone="no"?><svg xmlns="http://www.w3.org/2000/svg" xmlns:xlink="http://www.w3.org/1999/xlink" clip-rule="evenodd" stroke-miterlimit="10" viewBox="0 0 1024 768"><desc>SVG generated by Keynote</desc><defs></defs><g transform="matrix(1.00, 0.00, -0.00, -1.00, 0.0, 768.0)"><path d="M 0.0 768.0 L 1024.0 768.0 L 1024.0 0.0 L 0.0 0.0 Z M 0.0 768.0 " fill="#D0E4F3"></path><text xml:space="preserve" font-family="Helvetica-Light,Helvetica" font-size="80.0" fill="#D35854" transform="matrix(1.00, 0.00, -0.00, -1.00, 358.7, 633.4)">S</text><text xml:space="preserve" font-family="Helvetica-Light,Helvetica" font-size="80.0" fill="#D35854" transform="matrix(1.00, 0.00, -0.00, -1.00, 407.6, 633.4)">y</text><text xml:space="preserve" font-family="Helvetica-Light,Helvetica" font-size="80.0" fill="#D35854" transform="matrix(1.00, 0.00, -0.00, -1.00, 447.6, 633.4)">m</text><text xml:space="preserve" font-family="Helvetica-Light,Helvetica" font-size="80.0" fill="#D35854" transform="matrix(1.00, 0.00, -0.00, -1.00, 514.2, 633.4)">b</text><text xml:space="preserve" font-family="Helvetica-Light,Helvetica" font-size="80.0" fill="#D35854" transform="matrix(1.00, 0.00, -0.00, -1.00, 563.1, 633.4)">o</text><text xml:space="preserve" font-family="Helvetica-Light,Helvetica" font-size="80.0" fill="#D35854" transform="matrix(1.00, 0.00, -0.00, -1.00, 607.6, 633.4)">l</text><text xml:space="preserve" font-family="Helvetica-Light,Helvetica" font-size="80.0" fill="#D35854" transform="matrix(1.00, 0.00, -0.00, -1.00, 625.3, 633.4)">s</text><text xml:space="preserve" font-family="CourierNewPS-BoldMT,Courier New" font-weight="bold" font-size="38.0" fill="#000000" transform="matrix(1.00, 0.00, -0.00, -1.00, 79.0, 478.4)">v</text><text xml:space="preserve" font-family="CourierNewPS-BoldMT,Courier New" font-weight="bold" font-size="38.0" fill="#000000" transform="matrix(1.00, 0.00, -0.00, -1.00, 101.8, 478.4)">a</text><text xml:space="preserve" font-family="CourierNewPS-BoldMT,Courier New" font-weight="bold" font-size="38.0" fill="#000000" transform="matrix(1.00, 0.00, -0.00, -1.00, 124.6, 478.4)">r</text><text xml:space="preserve" font-family="CourierNewPSMT,Courier New" font-size="38.0" fill="#000000" transform="matrix(1.00, 0.00, -0.00, -1.00, 147.4, 478.4)"> </text><text xml:space="preserve" font-family="CourierNewPSMT,Courier New" font-size="38.0" fill="#000000" transform="matrix(1.00, 0.00, -0.00, -1.00, 170.2, 478.4)">m</text><text xml:space="preserve" font-family="CourierNewPSMT,Courier New" font-size="38.0" fill="#000000" transform="matrix(1.00, 0.00, -0.00, -1.00, 193.0, 478.4)">a</text><text xml:space="preserve" font-family="CourierNewPSMT,Courier New" font-size="38.0" fill="#000000" transform="matrix(1.00, 0.00, -0.00, -1.00, 215.8, 478.4)">r</text><text xml:space="preserve" font-family="CourierNewPSMT,Courier New" font-size="38.0" fill="#000000" transform="matrix(1.00, 0.00, -0.00, -1.00, 238.6, 478.4)">k</text><text xml:space="preserve" font-family="CourierNewPSMT,Courier New" font-size="38.0" fill="#000000" transform="matrix(1.00, 0.00, -0.00, -1.00, 261.4, 478.4)">e</text><text xml:space="preserve" font-family="CourierNewPSMT,Courier New" font-size="38.0" fill="#000000" transform="matrix(1.00, 0.00, -0.00, -1.00, 284.3, 478.4)">r</text><text xml:space="preserve" font-family="CourierNewPSMT,Courier New" font-size="38.0" fill="#000000" transform="matrix(1.00, 0.00, -0.00, -1.00, 307.1, 478.4)"> </text><text xml:space="preserve" font-family="CourierNewPSMT,Courier New" font-size="38.0" fill="#000000" transform="matrix(1.00, 0.00, -0.00, -1.00, 329.9, 478.4)">=</text><text xml:space="preserve" font-family="CourierNewPSMT,Courier New" font-size="38.0" fill="#000000" transform="matrix(1.00, 0.00, -0.00, -1.00, 352.7, 478.4)"> </text><text xml:space="preserve" font-family="CourierNewPS-BoldMT,Courier New" font-weight="bold" font-size="38.0" fill="#000000" transform="matrix(1.00, 0.00, -0.00, -1.00, 375.4, 478.4)">n</text><text xml:space="preserve" font-family="CourierNewPS-BoldMT,Courier New" font-weight="bold" font-size="38.0" fill="#000000" transform="matrix(1.00, 0.00, -0.00, -1.00, 398.3, 478.4)">e</text><text xml:space="preserve" font-family="CourierNewPS-BoldMT,Courier New" font-weight="bold" font-size="38.0" fill="#000000" transform="matrix(1.00, 0.00, -0.00, -1.00, 421.1, 478.4)">w</text><text xml:space="preserve" font-family="CourierNewPSMT,Courier New" font-size="38.0" fill="#000000" transform="matrix(1.00, 0.00, -0.00, -1.00, 443.9, 478.4)"> </text><text xml:space="preserve" font-family="CourierNewPSMT,Courier New" font-size="38.0" fill="#000000" transform="matrix(1.00, 0.00, -0.00, -1.00, 466.7, 478.4)">g</text><text xml:space="preserve" font-family="CourierNewPSMT,Courier New" font-size="38.0" fill="#000000" transform="matrix(1.00, 0.00, -0.00, -1.00, 489.5, 478.4)">o</text><text xml:space="preserve" font-family="CourierNewPSMT,Courier New" font-size="38.0" fill="#000000" transform="matrix(1.00, 0.00, -0.00, -1.00, 512.3, 478.4)">o</text><text xml:space="preserve" font-family="CourierNewPSMT,Courier New" font-size="38.0" fill="#000000" transform="matrix(1.00, 0.00, -0.00, -1.00, 535.1, 478.4)">g</text><text xml:space="preserve" font-family="CourierNewPSMT,Courier New" font-size="38.0" fill="#000000" transform="matrix(1.00, 0.00, -0.00, -1.00, 557.9, 478.4)">l</text><text xml:space="preserve" font-family="CourierNewPSMT,Courier New" font-size="38.0" fill="#000000" transform="matrix(1.00, 0.00, -0.00, -1.00, 580.7, 478.4)">e</text><text xml:space="preserve" font-family="CourierNewPSMT,Courier New" font-size="38.0" fill="#000000" transform="matrix(1.00, 0.00, -0.00, -1.00, 603.5, 478.4)">.</text><text xml:space="preserve" font-family="CourierNewPSMT,Courier New" font-size="38.0" fill="#000000" transform="matrix(1.00, 0.00, -0.00, -1.00, 626.3, 478.4)">m</text><text xml:space="preserve" font-family="CourierNewPSMT,Courier New" font-size="38.0" fill="#000000" transform="matrix(1.00, 0.00, -0.00, -1.00, 649.1, 478.4)">a</text><text xml:space="preserve" font-family="CourierNewPSMT,Courier New" font-size="38.0" fill="#000000" transform="matrix(1.00, 0.00, -0.00, -1.00, 671.9, 478.4)">p</text><text xml:space="preserve" font-family="CourierNewPSMT,Courier New" font-size="38.0" fill="#000000" transform="matrix(1.00, 0.00, -0.00, -1.00, 694.7, 478.4)">s</text><text xml:space="preserve" font-family="CourierNewPSMT,Courier New" font-size="38.0" fill="#000000" transform="matrix(1.00, 0.00, -0.00, -1.00, 717.5, 478.4)">.</text><text xml:space="preserve" font-family="CourierNewPSMT,Courier New" font-size="38.0" fill="#021993" transform="matrix(1.00, 0.00, -0.00, -1.00, 740.3, 478.4)">M</text><text xml:space="preserve" font-family="CourierNewPSMT,Courier New" font-size="38.0" fill="#021993" transform="matrix(1.00, 0.00, -0.00, -1.00, 763.1, 478.4)">a</text><text xml:space="preserve" font-family="CourierNewPSMT,Courier New" font-size="38.0" fill="#021993" transform="matrix(1.00, 0.00, -0.00, -1.00, 785.9, 478.4)">r</text><text xml:space="preserve" font-family="CourierNewPSMT,Courier New" font-size="38.0" fill="#021993" transform="matrix(1.00, 0.00, -0.00, -1.00, 808.7, 478.4)">k</text><text xml:space="preserve" font-family="CourierNewPSMT,Courier New" font-size="38.0" fill="#021993" transform="matrix(1.00, 0.00, -0.00, -1.00, 831.5, 478.4)">e</text><text xml:space="preserve" font-family="CourierNewPSMT,Courier New" font-size="38.0" fill="#021993" transform="matrix(1.00, 0.00, -0.00, -1.00, 854.3, 478.4)">r</text><text xml:space="preserve" font-family="CourierNewPSMT,Courier New" font-size="38.0" fill="#000000" transform="matrix(1.00, 0.00, -0.00, -1.00, 877.1, 478.4)">(</text><text xml:space="preserve" font-family="CourierNewPSMT,Courier New" font-size="38.0" fill="#000000" transform="matrix(1.00, 0.00, -0.00, -1.00, 899.9, 478.4)">{</text><text xml:space="preserve" font-family="CourierNewPSMT,Courier New" font-size="38.0" fill="#000000" transform="matrix(1.00, 0.00, -0.00, -1.00, 922.7, 478.4)"> </text><text xml:space="preserve" font-family="CourierNewPSMT,Courier New" font-size="38.0" fill="#000000" transform="matrix(1.00, 0.00, -0.00, -1.00, 79.0, 435.4)"> </text><text xml:space="preserve" font-family="CourierNewPSMT,Courier New" font-size="38.0" fill="#000000" transform="matrix(1.00, 0.00, -0.00, -1.00, 101.8, 435.4)"> </text><text xml:space="preserve" font-family="CourierNewPSMT,Courier New" font-size="38.0" fill="#000000" transform="matrix(1.00, 0.00, -0.00, -1.00, 124.6, 435.4)"> </text><text xml:space="preserve" font-family="CourierNewPSMT,Courier New" font-size="38.0" fill="#000000" transform="matrix(1.00, 0.00, -0.00, -1.00, 147.4, 435.4)"> </text><text xml:space="preserve" font-family="CourierNewPSMT,Courier New" font-size="38.0" fill="#000000" transform="matrix(1.00, 0.00, -0.00, -1.00, 170.2, 435.4)">p</text><text xml:space="preserve" font-family="CourierNewPSMT,Courier New" font-size="38.0" fill="#000000" transform="matrix(1.00, 0.00, -0.00, -1.00, 193.0, 435.4)">o</text><text xml:space="preserve" font-family="CourierNewPSMT,Courier New" font-size="38.0" fill="#000000" transform="matrix(1.00, 0.00, -0.00, -1.00, 215.8, 435.4)">s</text><text xml:space="preserve" font-family="CourierNewPSMT,Courier New" font-size="38.0" fill="#000000" transform="matrix(1.00, 0.00, -0.00, -1.00, 238.7, 435.4)">i</text><text xml:space="preserve" font-family="CourierNewPSMT,Courier New" font-size="38.0" fill="#000000" transform="matrix(1.00, 0.00, -0.00, -1.00, 261.5, 435.4)">t</text><text xml:space="preserve" font-family="CourierNewPSMT,Courier New" font-size="38.0" fill="#000000" transform="matrix(1.00, 0.00, -0.00, -1.00, 284.3, 435.4)">i</text><text xml:space="preserve" font-family="CourierNewPSMT,Courier New" font-size="38.0" fill="#000000" transform="matrix(1.00, 0.00, -0.00, -1.00, 307.1, 435.4)">o</text><text xml:space="preserve" font-family="CourierNewPSMT,Courier New" font-size="38.0" fill="#000000" transform="matrix(1.00, 0.00, -0.00, -1.00, 329.9, 435.4)">n</text><text xml:space="preserve" font-family="CourierNewPSMT,Courier New" font-size="38.0" fill="#000000" transform="matrix(1.00, 0.00, -0.00, -1.00, 352.7, 435.4)">:</text><text xml:space="preserve" font-family="CourierNewPSMT,Courier New" font-size="38.0" fill="#000000" transform="matrix(1.00, 0.00, -0.00, -1.00, 375.5, 435.4)"> </text><text xml:space="preserve" font-family="CourierNewPSMT,Courier New" font-size="38.0" fill="#000000" transform="matrix(1.00, 0.00, -0.00, -1.00, 398.3, 435.4)">b</text><text xml:space="preserve" font-family="CourierNewPSMT,Courier New" font-size="38.0" fill="#000000" transform="matrix(1.00, 0.00, -0.00, -1.00, 421.1, 435.4)">e</text><text xml:space="preserve" font-family="CourierNewPSMT,Courier New" font-size="38.0" fill="#000000" transform="matrix(1.00, 0.00, -0.00, -1.00, 443.9, 435.4)">t</text><text xml:space="preserve" font-family="CourierNewPSMT,Courier New" font-size="38.0" fill="#000000" transform="matrix(1.00, 0.00, -0.00, -1.00, 466.7, 435.4)">a</text><text xml:space="preserve" font-family="CourierNewPSMT,Courier New" font-size="38.0" fill="#000000" transform="matrix(1.00, 0.00, -0.00, -1.00, 489.5, 435.4)">h</text><text xml:space="preserve" font-family="CourierNewPSMT,Courier New" font-size="38.0" fill="#000000" transform="matrix(1.00, 0.00, -0.00, -1.00, 512.3, 435.4)">a</text><text xml:space="preserve" font-family="CourierNewPSMT,Courier New" font-size="38.0" fill="#000000" transform="matrix(1.00, 0.00, -0.00, -1.00, 535.2, 435.4)">u</text><text xml:space="preserve" font-family="CourierNewPSMT,Courier New" font-size="38.0" fill="#000000" transform="matrix(1.00, 0.00, -0.00, -1.00, 558.0, 435.4)">s</text><text xml:space="preserve" font-family="CourierNewPSMT,Courier New" font-size="38.0" fill="#000000" transform="matrix(1.00, 0.00, -0.00, -1.00, 580.8, 435.4)">,</text><text xml:space="preserve" font-family="CourierNewPSMT,Courier New" font-size="38.0" fill="#000000" transform="matrix(1.00, 0.00, -0.00, -1.00, 603.6, 435.4)"> </text><text xml:space="preserve" font-family="CourierNewPSMT,Courier New" font-size="38.0" fill="#000000" transform="matrix(1.00, 0.00, -0.00, -1.00, 79.0, 392.4)"> </text><text xml:space="preserve" font-family="CourierNewPSMT,Courier New" font-size="38.0" fill="#000000" transform="matrix(1.00, 0.00, -0.00, -1.00, 101.8, 392.4)"> </text><text xml:space="preserve" font-family="CourierNewPSMT,Courier New" font-size="38.0" fill="#000000" transform="matrix(1.00, 0.00, -0.00, -1.00, 124.6, 392.4)"> </text><text xml:space="preserve" font-family="CourierNewPSMT,Courier New" font-size="38.0" fill="#000000" transform="matrix(1.00, 0.00, -0.00, -1.00, 147.4, 392.4)"> </text><text xml:space="preserve" font-family="CourierNewPSMT,Courier New" font-size="38.0" fill="#000000" transform="matrix(1.00, 0.00, -0.00, -1.00, 170.2, 392.4)">i</text><text xml:space="preserve" font-family="CourierNewPSMT,Courier New" font-size="38.0" fill="#000000" transform="matrix(1.00, 0.00, -0.00, -1.00, 193.0, 392.4)">c</text><text xml:space="preserve" font-family="CourierNewPSMT,Courier New" font-size="38.0" fill="#000000" transform="matrix(1.00, 0.00, -0.00, -1.00, 215.8, 392.4)">o</text><text xml:space="preserve" font-family="CourierNewPSMT,Courier New" font-size="38.0" fill="#000000" transform="matrix(1.00, 0.00, -0.00, -1.00, 238.7, 392.4)">n</text><text xml:space="preserve" font-family="CourierNewPSMT,Courier New" font-size="38.0" fill="#000000" transform="matrix(1.00, 0.00, -0.00, -1.00, 261.5, 392.4)">:</text><text xml:space="preserve" font-family="CourierNewPSMT,Courier New" font-size="38.0" fill="#000000" transform="matrix(1.00, 0.00, -0.00, -1.00, 284.3, 392.4)"> </text><text xml:space="preserve" font-family="CourierNewPSMT,Courier New" font-size="38.0" fill="#000000" transform="matrix(1.00, 0.00, -0.00, -1.00, 307.1, 392.4)">{</text><text xml:space="preserve" font-family="CourierNewPSMT,Courier New" font-size="38.0" fill="#000000" transform="matrix(1.00, 0.00, -0.00, -1.00, 329.9, 392.4)"> </text><text xml:space="preserve" font-family="CourierNewPSMT,Courier New" font-size="38.0" fill="#000000" transform="matrix(1.00, 0.00, -0.00, -1.00, 79.0, 349.4)"> </text><text xml:space="preserve" font-family="CourierNewPSMT,Courier New" font-size="38.0" fill="#000000" transform="matrix(1.00, 0.00, -0.00, -1.00, 101.8, 349.4)"> </text><text xml:space="preserve" font-family="CourierNewPSMT,Courier New" font-size="38.0" fill="#000000" transform="matrix(1.00, 0.00, -0.00, -1.00, 124.6, 349.4)"> </text><text xml:space="preserve" font-family="CourierNewPSMT,Courier New" font-size="38.0" fill="#000000" transform="matrix(1.00, 0.00, -0.00, -1.00, 147.4, 349.4)"> </text><text xml:space="preserve" font-family="CourierNewPSMT,Courier New" font-size="38.0" fill="#000000" transform="matrix(1.00, 0.00, -0.00, -1.00, 170.2, 349.4)"> </text><text xml:space="preserve" font-family="CourierNewPSMT,Courier New" font-size="38.0" fill="#000000" transform="matrix(1.00, 0.00, -0.00, -1.00, 193.0, 349.4)"> </text><text xml:space="preserve" font-family="CourierNewPSMT,Courier New" font-size="38.0" fill="#000000" transform="matrix(1.00, 0.00, -0.00, -1.00, 215.8, 349.4)"> </text><text xml:space="preserve" font-family="CourierNewPSMT,Courier New" font-size="38.0" fill="#000000" transform="matrix(1.00, 0.00, -0.00, -1.00, 238.7, 349.4)"> </text><text xml:space="preserve" font-family="CourierNewPSMT,Courier New" font-size="38.0" fill="#000000" transform="matrix(1.00, 0.00, -0.00, -1.00, 261.5, 349.4)">p</text><text xml:space="preserve" font-family="CourierNewPSMT,Courier New" font-size="38.0" fill="#000000" transform="matrix(1.00, 0.00, -0.00, -1.00, 284.3, 349.4)">a</text><text xml:space="preserve" font-family="CourierNewPSMT,Courier New" font-size="38.0" fill="#000000" transform="matrix(1.00, 0.00, -0.00, -1.00, 307.1, 349.4)">t</text><text xml:space="preserve" font-family="CourierNewPSMT,Courier New" font-size="38.0" fill="#000000" transform="matrix(1.00, 0.00, -0.00, -1.00, 329.9, 349.4)">h</text><text xml:space="preserve" font-family="CourierNewPSMT,Courier New" font-size="38.0" fill="#000000" transform="matrix(1.00, 0.00, -0.00, -1.00, 352.7, 349.4)">:</text><text xml:space="preserve" font-family="CourierNewPSMT,Courier New" font-size="38.0" fill="#000000" transform="matrix(1.00, 0.00, -0.00, -1.00, 375.5, 349.4)"> </text><text xml:space="preserve" font-family="CourierNewPSMT,Courier New" font-size="38.0" fill="#000000" transform="matrix(1.00, 0.00, -0.00, -1.00, 79.0, 306.4)">g</text><text xml:space="preserve" font-family="CourierNewPSMT,Courier New" font-size="38.0" fill="#000000" transform="matrix(1.00, 0.00, -0.00, -1.00, 101.8, 306.4)">o</text><text xml:space="preserve" font-family="CourierNewPSMT,Courier New" font-size="38.0" fill="#000000" transform="matrix(1.00, 0.00, -0.00, -1.00, 124.6, 306.4)">o</text><text xml:space="preserve" font-family="CourierNewPSMT,Courier New" font-size="38.0" fill="#000000" transform="matrix(1.00, 0.00, -0.00, -1.00, 147.4, 306.4)">g</text><text xml:space="preserve" font-family="CourierNewPSMT,Courier New" font-size="38.0" fill="#000000" transform="matrix(1.00, 0.00, -0.00, -1.00, 170.2, 306.4)">l</text><text xml:space="preserve" font-family="CourierNewPSMT,Courier New" font-size="38.0" fill="#000000" transform="matrix(1.00, 0.00, -0.00, -1.00, 193.0, 306.4)">e</text><text xml:space="preserve" font-family="CourierNewPSMT,Courier New" font-size="38.0" fill="#000000" transform="matrix(1.00, 0.00, -0.00, -1.00, 215.8, 306.4)">.</text><text xml:space="preserve" font-family="CourierNewPSMT,Courier New" font-size="38.0" fill="#000000" transform="matrix(1.00, 0.00, -0.00, -1.00, 238.7, 306.4)">m</text><text xml:space="preserve" font-family="CourierNewPSMT,Courier New" font-size="38.0" fill="#000000" transform="matrix(1.00, 0.00, -0.00, -1.00, 261.5, 306.4)">a</text><text xml:space="preserve" font-family="CourierNewPSMT,Courier New" font-size="38.0" fill="#000000" transform="matrix(1.00, 0.00, -0.00, -1.00, 284.3, 306.4)">p</text><text xml:space="preserve" font-family="CourierNewPSMT,Courier New" font-size="38.0" fill="#000000" transform="matrix(1.00, 0.00, -0.00, -1.00, 307.1, 306.4)">s</text><text xml:space="preserve" font-family="CourierNewPSMT,Courier New" font-size="38.0" fill="#000000" transform="matrix(1.00, 0.00, -0.00, -1.00, 329.9, 306.4)">.</text><text xml:space="preserve" font-family="CourierNewPSMT,Courier New" font-size="38.0" fill="#000000" transform="matrix(1.00, 0.00, -0.00, -1.00, 352.7, 306.4)">S</text><text xml:space="preserve" font-family="CourierNewPSMT,Courier New" font-size="38.0" fill="#000000" transform="matrix(1.00, 0.00, -0.00, -1.00, 375.5, 306.4)">y</text><text xml:space="preserve" font-family="CourierNewPSMT,Courier New" font-size="38.0" fill="#000000" transform="matrix(1.00, 0.00, -0.00, -1.00, 398.3, 306.4)">m</text><text xml:space="preserve" font-family="CourierNewPSMT,Courier New" font-size="38.0" fill="#000000" transform="matrix(1.00, 0.00, -0.00, -1.00, 421.1, 306.4)">b</text><text xml:space="preserve" font-family="CourierNewPSMT,Courier New" font-size="38.0" fill="#000000" transform="matrix(1.00, 0.00, -0.00, -1.00, 443.9, 306.4)">o</text><text xml:space="preserve" font-family="CourierNewPSMT,Courier New" font-size="38.0" fill="#000000" transform="matrix(1.00, 0.00, -0.00, -1.00, 466.7, 306.4)">l</text><text xml:space="preserve" font-family="CourierNewPSMT,Courier New" font-size="38.0" fill="#000000" transform="matrix(1.00, 0.00, -0.00, -1.00, 489.5, 306.4)">P</text><text xml:space="preserve" font-family="CourierNewPSMT,Courier New" font-size="38.0" fill="#000000" transform="matrix(1.00, 0.00, -0.00, -1.00, 512.3, 306.4)">a</text><text xml:space="preserve" font-family="CourierNewPSMT,Courier New" font-size="38.0" fill="#000000" transform="matrix(1.00, 0.00, -0.00, -1.00, 535.2, 306.4)">t</text><text xml:space="preserve" font-family="CourierNewPSMT,Courier New" font-size="38.0" fill="#000000" transform="matrix(1.00, 0.00, -0.00, -1.00, 558.0, 306.4)">h</text><text xml:space="preserve" font-family="CourierNewPSMT,Courier New" font-size="38.0" fill="#000000" transform="matrix(1.00, 0.00, -0.00, -1.00, 580.8, 306.4)">.</text><text xml:space="preserve" font-family="CourierNewPSMT,Courier New" font-size="38.0" fill="#000000" transform="matrix(1.00, 0.00, -0.00, -1.00, 603.6, 306.4)">C</text><text xml:space="preserve" font-family="CourierNewPSMT,Courier New" font-size="38.0" fill="#000000" transform="matrix(1.00, 0.00, -0.00, -1.00, 626.4, 306.4)">I</text><text xml:space="preserve" font-family="CourierNewPSMT,Courier New" font-size="38.0" fill="#000000" transform="matrix(1.00, 0.00, -0.00, -1.00, 649.2, 306.4)">R</text><text xml:space="preserve" font-family="CourierNewPSMT,Courier New" font-size="38.0" fill="#000000" transform="matrix(1.00, 0.00, -0.00, -1.00, 672.0, 306.4)">C</text><text xml:space="preserve" font-family="CourierNewPSMT,Courier New" font-size="38.0" fill="#000000" transform="matrix(1.00, 0.00, -0.00, -1.00, 694.8, 306.4)">L</text><text xml:space="preserve" font-family="CourierNewPSMT,Courier New" font-size="38.0" fill="#000000" transform="matrix(1.00, 0.00, -0.00, -1.00, 717.6, 306.4)">E</text><text xml:space="preserve" font-family="CourierNewPSMT,Courier New" font-size="38.0" fill="#000000" transform="matrix(1.00, 0.00, -0.00, -1.00, 740.4, 306.4)">,</text><text xml:space="preserve" font-family="CourierNewPSMT,Courier New" font-size="38.0" fill="#000000" transform="matrix(1.00, 0.00, -0.00, -1.00, 763.2, 306.4)"> </text><text xml:space="preserve" font-family="CourierNewPSMT,Courier New" font-size="38.0" fill="#000000" transform="matrix(1.00, 0.00, -0.00, -1.00, 79.0, 263.4)"> </text><text xml:space="preserve" font-family="CourierNewPSMT,Courier New" font-size="38.0" fill="#000000" transform="matrix(1.00, 0.00, -0.00, -1.00, 101.8, 263.4)"> </text><text xml:space="preserve" font-family="CourierNewPSMT,Courier New" font-size="38.0" fill="#000000" transform="matrix(1.00, 0.00, -0.00, -1.00, 124.6, 263.4)"> </text><text xml:space="preserve" font-family="CourierNewPSMT,Courier New" font-size="38.0" fill="#000000" transform="matrix(1.00, 0.00, -0.00, -1.00, 147.4, 263.4)"> </text><text xml:space="preserve" font-family="CourierNewPSMT,Courier New" font-size="38.0" fill="#000000" transform="matrix(1.00, 0.00, -0.00, -1.00, 170.2, 263.4)"> </text><text xml:space="preserve" font-family="CourierNewPSMT,Courier New" font-size="38.0" fill="#000000" transform="matrix(1.00, 0.00, -0.00, -1.00, 193.0, 263.4)"> </text><text xml:space="preserve" font-family="CourierNewPSMT,Courier New" font-size="38.0" fill="#000000" transform="matrix(1.00, 0.00, -0.00, -1.00, 215.8, 263.4)"> </text><text xml:space="preserve" font-family="CourierNewPSMT,Courier New" font-size="38.0" fill="#000000" transform="matrix(1.00, 0.00, -0.00, -1.00, 238.7, 263.4)"> </text><text xml:space="preserve" font-family="CourierNewPSMT,Courier New" font-size="38.0" fill="#000000" transform="matrix(1.00, 0.00, -0.00, -1.00, 261.5, 263.4)">s</text><text xml:space="preserve" font-family="CourierNewPSMT,Courier New" font-size="38.0" fill="#000000" transform="matrix(1.00, 0.00, -0.00, -1.00, 284.3, 263.4)">c</text><text xml:space="preserve" font-family="CourierNewPSMT,Courier New" font-size="38.0" fill="#000000" transform="matrix(1.00, 0.00, -0.00, -1.00, 307.1, 263.4)">a</text><text xml:space="preserve" font-family="CourierNewPSMT,Courier New" font-size="38.0" fill="#000000" transform="matrix(1.00, 0.00, -0.00, -1.00, 329.9, 263.4)">l</text><text xml:space="preserve" font-family="CourierNewPSMT,Courier New" font-size="38.0" fill="#000000" transform="matrix(1.00, 0.00, -0.00, -1.00, 352.7, 263.4)">e</text><text xml:space="preserve" font-family="CourierNewPSMT,Courier New" font-size="38.0" fill="#000000" transform="matrix(1.00, 0.00, -0.00, -1.00, 375.5, 263.4)">:</text><text xml:space="preserve" font-family="CourierNewPSMT,Courier New" font-size="38.0" fill="#000000" transform="matrix(1.00, 0.00, -0.00, -1.00, 398.3, 263.4)"> </text><text xml:space="preserve" font-family="CourierNewPSMT,Courier New" font-size="38.0" fill="#BE8F00" transform="matrix(1.00, 0.00, -0.00, -1.00, 421.1, 263.4)">1</text><text xml:space="preserve" font-family="CourierNewPSMT,Courier New" font-size="38.0" fill="#BE8F00" transform="matrix(1.00, 0.00, -0.00, -1.00, 443.9, 263.4)">0</text><text xml:space="preserve" font-family="CourierNewPSMT,Courier New" font-size="38.0" fill="#000000" transform="matrix(1.00, 0.00, -0.00, -1.00, 466.7, 263.4)"> </text><text xml:space="preserve" font-family="CourierNewPSMT,Courier New" font-size="38.0" fill="#000000" transform="matrix(1.00, 0.00, -0.00, -1.00, 79.0, 220.4)"> </text><text xml:space="preserve" font-family="CourierNewPSMT,Courier New" font-size="38.0" fill="#000000" transform="matrix(1.00, 0.00, -0.00, -1.00, 101.8, 220.4)"> </text><text xml:space="preserve" font-family="CourierNewPSMT,Courier New" font-size="38.0" fill="#000000" transform="matrix(1.00, 0.00, -0.00, -1.00, 124.6, 220.4)"> </text><text xml:space="preserve" font-family="CourierNewPSMT,Courier New" font-size="38.0" fill="#000000" transform="matrix(1.00, 0.00, -0.00, -1.00, 147.4, 220.4)"> </text><text xml:space="preserve" font-family="CourierNewPSMT,Courier New" font-size="38.0" fill="#000000" transform="matrix(1.00, 0.00, -0.00, -1.00, 170.2, 220.4)">}</text><text xml:space="preserve" font-family="CourierNewPSMT,Courier New" font-size="38.0" fill="#000000" transform="matrix(1.00, 0.00, -0.00, -1.00, 193.0, 220.4)">,</text><text xml:space="preserve" font-family="CourierNewPSMT,Courier New" font-size="38.0" fill="#000000" transform="matrix(1.00, 0.00, -0.00, -1.00, 215.8, 220.4)"> </text><text xml:space="preserve" font-family="CourierNewPSMT,Courier New" font-size="38.0" fill="#000000" transform="matrix(1.00, 0.00, -0.00, -1.00, 79.0, 177.4)"> </text><text xml:space="preserve" font-family="CourierNewPSMT,Courier New" font-size="38.0" fill="#000000" transform="matrix(1.00, 0.00, -0.00, -1.00, 101.8, 177.4)"> </text><text xml:space="preserve" font-family="CourierNewPSMT,Courier New" font-size="38.0" fill="#000000" transform="matrix(1.00, 0.00, -0.00, -1.00, 124.6, 177.4)"> </text><text xml:space="preserve" font-family="CourierNewPSMT,Courier New" font-size="38.0" fill="#000000" transform="matrix(1.00, 0.00, -0.00, -1.00, 147.4, 177.4)"> </text><text xml:space="preserve" font-family="CourierNewPSMT,Courier New" font-size="38.0" fill="#000000" transform="matrix(1.00, 0.00, -0.00, -1.00, 170.2, 177.4)">m</text><text xml:space="preserve" font-family="CourierNewPSMT,Courier New" font-size="38.0" fill="#000000" transform="matrix(1.00, 0.00, -0.00, -1.00, 193.0, 177.4)">a</text><text xml:space="preserve" font-family="CourierNewPSMT,Courier New" font-size="38.0" fill="#000000" transform="matrix(1.00, 0.00, -0.00, -1.00, 215.8, 177.4)">p</text><text xml:space="preserve" font-family="CourierNewPSMT,Courier New" font-size="38.0" fill="#000000" transform="matrix(1.00, 0.00, -0.00, -1.00, 238.7, 177.4)">:</text><text xml:space="preserve" font-family="CourierNewPSMT,Courier New" font-size="38.0" fill="#000000" transform="matrix(1.00, 0.00, -0.00, -1.00, 261.5, 177.4)"> </text><text xml:space="preserve" font-family="CourierNewPSMT,Courier New" font-size="38.0" fill="#000000" transform="matrix(1.00, 0.00, -0.00, -1.00, 284.3, 177.4)">m</text><text xml:space="preserve" font-family="CourierNewPSMT,Courier New" font-size="38.0" fill="#000000" transform="matrix(1.00, 0.00, -0.00, -1.00, 307.1, 177.4)">a</text><text xml:space="preserve" font-family="CourierNewPSMT,Courier New" font-size="38.0" fill="#000000" transform="matrix(1.00, 0.00, -0.00, -1.00, 329.9, 177.4)">p</text><text xml:space="preserve" font-family="CourierNewPSMT,Courier New" font-size="38.0" fill="#000000" transform="matrix(1.00, 0.00, -0.00, -1.00, 352.7, 177.4)"> </text><text xml:space="preserve" font-family="CourierNewPSMT,Courier New" font-size="38.0" fill="#000000" transform="matrix(1.00, 0.00, -0.00, -1.00, 79.0, 134.4)">}</text><text xml:space="preserve" font-family="CourierNewPSMT,Courier New" font-size="38.0" fill="#000000" transform="matrix(1.00, 0.00, -0.00, -1.00, 101.8, 134.4)">)</text><text xml:space="preserve" font-family="CourierNewPSMT,Courier New" font-size="38.0" fill="#000000" transform="matrix(1.00, 0.00, -0.00, -1.00, 124.6, 134.4)">;</text></g></svg>